<?xml version="1.0" standalone="no"?>
<!DOCTYPE svg PUBLIC "-//W3C//DTD SVG 1.1//EN" "http://www.w3.org/Graphics/SVG/1.1/DTD/svg11.dtd" >
<svg xmlns="http://www.w3.org/2000/svg" xmlns:xlink="http://www.w3.org/1999/xlink" version="1.1">
<metadata>
Created by FontForge 20170924 at Mon Feb 21 14:52:03 2005
 By www-data
Copyright (c) 1990 Neufville SL, Copyright (c) 1990-2000 ParaType, Inc. All Rights Reserved. Futura is a registered trade mark of Neufville SL.
</metadata>
<defs>
<font id="FuturaFuturisC" horiz-adv-x="590" >
  <font-face 
    font-family="FuturaFuturisC"
    font-weight="400"
    font-stretch="normal"
    units-per-em="1000"
    panose-1="0 0 5 0 0 0 0 0 0 0"
    ascent="738"
    descent="-262"
    x-height="442"
    cap-height="700"
    bbox="-412 -262 1223 950"
    underline-thickness="50"
    underline-position="-100"
    unicode-range="U+0020-2122"
  />
<missing-glyph horiz-adv-x="233" 
 />
    <glyph glyph-name=".notdef" horiz-adv-x="233" 
 />
    <glyph glyph-name="space" unicode=" " horiz-adv-x="233" 
 />
    <glyph glyph-name="space" unicode="&#xa0;" horiz-adv-x="233" 
 />
    <glyph glyph-name="exclam" unicode="!" horiz-adv-x="260" 
d="M181 156h-102v544h102v-544zM64 52c0 18 6.5 33.5 19.5 46.5s28.5 19.5 46.5 19.5s33.5 -6.5 46.5 -19.5s19.5 -28.5 19.5 -46.5s-6.5 -33.5 -19.5 -46.5s-28.5 -19.5 -46.5 -19.5s-33.5 6.5 -46.5 19.5s-19.5 28.5 -19.5 46.5z" />
    <glyph glyph-name="quotedbl" unicode="&#x22;" horiz-adv-x="380" 
d="M162 700l-19 -280h-76l-19 280h114zM332 700l-19 -280h-76l-19 280h114z" />
    <glyph glyph-name="numbersign" unicode="#" horiz-adv-x="628" 
d="M474 298h113l-15 -92h-113l-33 -206h-102l33 206h-122l-32 -206h-102l32 206h-113l15 92h113l18 118h-113l15 92h113l31 192h102l-31 -192h122l30 192h102l-30 -192h113l-15 -92h-113zM372 298l18 118h-122l-18 -118h122z" />
    <glyph glyph-name="dollar" unicode="$" 
d="M497 595l-85.999 -49.999c-7.33301 17.333 -18 32 -32 44c-20.667 16.667 -45.667 25 -75 25c-28.667 0 -52.167 -7.33301 -70.5 -22s-27.5 -35.334 -27.5 -62.001c0 -36.667 25 -65 75 -85l70 -28c110 -44 165 -112.667 165 -206c0 -56.667 -16.5 -105 -49.5 -145
s-75.167 -65 -126.5 -75v-96h-78v92c-54.667 5.33301 -100.334 28.666 -137.001 69.999c-33.333 38 -53 83.333 -59 136l106 23c1.33301 -31.333 11.333 -61 30 -89c22 -28 52.333 -42 91 -42c36 0 64.167 12 84.5 36s30.5 51.333 30.5 82
c0 31.333 -9.33301 55.833 -28 73.5s-42.667 32.834 -72 45.501l-67 29c-43.333 18.667 -78 41.667 -104 69s-39 63.333 -39 108c0 46.667 15.5 87 46.5 121s70.167 54 117.5 60v90h78v-89c42.667 -6.66699 77 -21.667 103 -45c23.333 -20.667 41.333 -44 54 -70z" />
    <glyph glyph-name="percent" unicode="%" horiz-adv-x="846" 
d="M198 19l400 693l50 -31l-400 -693zM202 378c-41.333 0 -79.833 14.833 -115.5 44.5s-53.5 69.5 -53.5 119.5s17.833 89.833 53.5 119.5s74.167 44.5 115.5 44.5c46 0 85.667 -16.167 119 -48.5s50 -70.833 50 -115.5s-16.667 -83.167 -50 -115.5s-73 -48.5 -119 -48.5z
M202 632c-26.667 0 -47.834 -9.66797 -63.501 -29.001s-23.5 -39.666 -23.5 -60.999c0 -22 7.83301 -42.5 23.5 -61.5s36.834 -28.5 63.501 -28.5c26 0 47 9.5 63 28.5s24 39.5 24 61.5s-8 42.5 -24 61.5s-37 28.5 -63 28.5zM644 -6.00098
c-41.333 0 -79.833 14.833 -115.5 44.5s-53.5 69.5 -53.5 119.5s17.833 89.833 53.5 119.5s74.167 44.5 115.5 44.5c46 0 85.667 -16.167 119 -48.5s50 -70.833 50 -115.5s-16.667 -83.167 -50 -115.5s-73 -48.5 -119 -48.5zM644 247.999
c-26.667 0 -47.834 -9.66797 -63.501 -29.001s-23.5 -39.666 -23.5 -60.999c0 -22 7.83301 -42.5 23.5 -61.5s36.834 -28.5 63.501 -28.5c26 0 47 9.5 63 28.5s24 39.5 24 61.5s-8 42.5 -24 61.5s-37 28.5 -63 28.5z" />
    <glyph glyph-name="ampersand" unicode="&#x26;" horiz-adv-x="676" 
d="M561 328l67.998 -71.001l-82 -95l129 -162h-130l-70 86c-17.333 -18.667 -37 -35.667 -59 -51c-46.667 -32.667 -97.667 -49 -153 -49c-64 0 -115 18.833 -153 56.5s-57 85.834 -57 144.501c0 24 3 46 9 66s15 37.333 27 52s22.333 26 31 34s20 17.333 34 28
c22.667 16 41.334 29 56.001 39c-46.667 48 -70 96.333 -70 145c0 44 14.333 82.167 43 114.5s69.667 48.5 123 48.5c52.667 0 93.834 -15.333 123.501 -46s44.5 -66.334 44.5 -107.001c0 -35.333 -10 -65.666 -30 -90.999c-22 -26.667 -51 -53.667 -87 -81l123 -151z
M411.998 161.999l-138.002 168c-32 -17.333 -57.667 -36.666 -77 -57.999c-24.667 -26.667 -37 -56.334 -37 -89.001c0 -26.667 9.33301 -51.167 28 -73.5s45.334 -33.5 80.001 -33.5c26.667 0 53 9.33301 79 28c22.667 16 44.334 35.333 65.001 58zM295.996 463.999l39 28
c28 20 42 43 42 69c0 16.667 -5.83301 31.334 -17.5 44.001s-29.167 19 -52.5 19c-15.333 0 -28 -2.5 -38 -7.5s-17 -11.667 -21 -20s-6.5 -14.833 -7.5 -19.5s-1.5 -9.33398 -1.5 -14.001c0 -20 8.33301 -40.333 25 -61z" />
    <glyph glyph-name="quotesingle" unicode="'" horiz-adv-x="210" 
d="M162 700l-19 -280h-76l-19 280h114z" />
    <glyph glyph-name="parenleft" unicode="(" horiz-adv-x="334" 
d="M274 -187l-95.001 -36.999c-27.333 55.333 -49 117.333 -65 186c-22.667 96 -34 195.333 -34 298s11.333 202 34 298c16.667 68 38.334 129.667 65.001 185l95 -36c-26 -62.667 -45 -118.334 -57 -167.001c-20.667 -82.667 -31 -176 -31 -280
c0 -105.333 10.333 -199 31 -281c18.667 -64.667 37.667 -120 57 -166z" />
    <glyph glyph-name="parenright" unicode=")" horiz-adv-x="334" 
d="M60 707l94.999 35.999c26.667 -55.333 48.334 -117 65.001 -185c22.667 -96 34 -195.333 34 -298s-11.333 -202 -34 -298c-16 -68.667 -37.667 -130.667 -65 -186l-95 37c19.333 46 38.333 101.333 57 166c20.667 82 31 175.667 31 281c0 104 -10.333 197.333 -31 280
c-12 48.667 -31 104.334 -57 167.001z" />
    <glyph glyph-name="asterisk" unicode="*" horiz-adv-x="586" 
d="M140 657l114 -44l-7 122h92l-7 -122l114 44l29 -86l-119 -31l78 -96l-74 -52l-67 103l-67 -103l-74 52l78 96l-119 31z" />
    <glyph glyph-name="plus" unicode="+" horiz-adv-x="522" 
d="M33 306v94h179v178h98v-178h179v-94h-179v-178h-98v178h-179z" />
    <glyph glyph-name="comma" unicode="," horiz-adv-x="260" 
d="M-4 -134l106 264l94 -34l-130 -260z" />
    <glyph glyph-name="hyphen" unicode="-" horiz-adv-x="332" 
d="M40 170v106h252v-106h-252z" />
    <glyph glyph-name="hyphen" unicode="&#xad;" horiz-adv-x="332" 
d="M40 170v106h252v-106h-252z" />
    <glyph glyph-name="period" unicode="." horiz-adv-x="260" 
d="M64 52c0 18 6.5 33.5 19.5 46.5s28.5 19.5 46.5 19.5s33.5 -6.5 46.5 -19.5s19.5 -28.5 19.5 -46.5s-6.5 -33.5 -19.5 -46.5s-28.5 -19.5 -46.5 -19.5s-33.5 6.5 -46.5 19.5s-19.5 28.5 -19.5 46.5z" />
    <glyph glyph-name="slash" unicode="/" horiz-adv-x="562" 
d="M0 -184l400 928l84 -38l-400 -928z" />
    <glyph glyph-name="zero" unicode="0" 
d="M295 -14c-60.667 0 -113.332 25.333 -157.999 76c-60.667 68.667 -91 164.334 -91 287.001c0 124 30.333 220.333 91 289c44 50.667 96.667 76 158 76s114 -25.333 158 -76c60.667 -68.667 91 -165 91 -289c0 -122.667 -30.333 -218.334 -91 -287.001
c-44.667 -50.667 -97.334 -76 -158.001 -76zM295.002 618c-37.333 0 -68.666 -19.333 -93.999 -58c-32.667 -49.333 -49 -119 -49 -209c0 -90.667 16.333 -161 49 -211c25.333 -38.667 56.666 -58 93.999 -58s68.666 19.333 93.999 58c32.667 50 49 120.333 49 211
c0 90 -16.333 159.667 -49 209c-25.333 38.667 -56.666 58 -93.999 58z" />
    <glyph glyph-name="one" unicode="1" 
d="M260 0v602h-120l58 98h170v-700h-108z" />
    <glyph glyph-name="two" unicode="2" 
d="M504 96l-0.000976562 -95.999h-470l244 294c40.667 49.333 68.667 85.666 84 108.999c22.667 34 34 67 34 99s-10.333 59.333 -31 82s-48.667 34 -84 34c-33.333 0 -61.833 -11.667 -85.5 -35s-36.167 -54.333 -37.5 -93h-104c2.66699 59.333 22.334 110.333 59.001 153
c40 47.333 95.667 71 167 71c70 0 124.5 -20.5 163.5 -61.5s58.5 -91.5 58.5 -151.5c0 -48 -16.667 -97 -50 -147c-12.667 -19.333 -46 -61.333 -100 -126l-112 -132h264z" />
    <glyph glyph-name="three" unicode="3" 
d="M173 523l-103.999 0.00195312c4 44 15.667 80.667 35 110c36 54 93.333 81 172 81c64 0 114.667 -18.167 152 -54.5s56 -83.5 56 -141.5c0 -64 -25.667 -113.667 -77 -149c59.333 -30 89 -83.333 89 -160c0 -24.667 -3.5 -48.834 -10.5 -72.501
s-18.5 -47.334 -34.5 -71.001s-39.833 -42.834 -71.5 -57.501s-68.834 -22 -111.501 -22c-56.667 0 -101.334 12.167 -134.001 36.5s-55.667 53.833 -69 88.5c-9.33301 24 -15 50 -17 78h104c2.66699 -30.667 14.667 -56.167 36 -76.5s48.666 -30.5 81.999 -30.5
c36 0 65 11.667 87 35s33 54.333 33 93c0 32.667 -10.667 59.834 -32 81.501s-50.666 32.5 -87.999 32.5h-21v92h21c73.333 0 110 31.667 110 95c0 33.333 -9.5 59.5 -28.5 78.5s-44.5 28.5 -76.5 28.5c-29.333 0 -53.166 -8.33301 -71.499 -25s-28.5 -40 -30.5 -70z" />
    <glyph glyph-name="four" unicode="4" 
d="M468 750v-554h74v-96h-74v-100h-102v100h-346zM206 196h160v236z" />
    <glyph glyph-name="five" unicode="5" 
d="M499 700l-0.00292969 -96.0029h-218l-33 -119c14.667 1.33301 25.334 2 32.001 2c59.333 0 109.666 -17.667 150.999 -53c52.667 -45.333 79 -108.666 79 -189.999c0 -32 -5.16699 -63 -15.5 -93s-25.666 -57.5 -45.999 -82.5s-47.666 -45 -81.999 -60
s-73.833 -22.5 -118.5 -22.5c-97.333 0 -170.666 44.333 -219.999 133l80 67c11.333 -26.667 28.833 -50.667 52.5 -72s55.167 -32 94.5 -32c48 0 84.833 14.833 110.5 44.5s38.5 66.834 38.5 111.501s-12.833 81.334 -38.5 110.001s-60.167 43 -103.5 43
c-56 0 -98.333 -20.333 -127 -61h-36l110 370h290z" />
    <glyph glyph-name="six" unicode="6" 
d="M373 724l76.999 -58l-167 -225c12 2 23.667 3 35 3c56 0 105.333 -19 148 -57s64 -93.333 64 -166c0 -67.333 -21 -123.333 -63 -168s-98.667 -67 -170 -67c-67.333 0 -123.666 21 -168.999 63s-68 97 -68 165c0 54.667 23 113.667 69 177zM293.999 348
c-37.333 0 -68 -12.333 -92 -37s-36 -56.667 -36 -96c0 -38.667 12 -70.5 36 -95.5s55 -37.5 93 -37.5s69 12.5 93 37.5s36 56.833 36 95.5c0 39.333 -12 71.333 -36 96s-55.333 37 -94 37z" />
    <glyph glyph-name="seven" unicode="7" 
d="M50 28l348 576h-344v96h518l-438 -724z" />
    <glyph glyph-name="eight" unicode="8" 
d="M168 364c-51.333 36 -76.998 85.667 -76.998 149c0 60.667 19.667 109.334 59 146.001s87.666 55 144.999 55s105.666 -18.333 144.999 -55s59 -85.334 59 -146.001c0 -63.333 -25.667 -113 -77 -149c62.667 -32.667 94 -87.667 94 -165
c0 -65.333 -21.5 -117.166 -64.5 -155.499s-95.167 -57.5 -156.5 -57.5s-113.5 19.167 -156.5 57.5s-64.5 90.166 -64.5 155.499c0 77.333 31.333 132.333 94 165zM295.002 618c-31.333 0 -56.833 -9.66699 -76.5 -29s-29.5 -45 -29.5 -77c0 -34 11 -60 33 -78
s46.333 -27 73 -27s51 9 73 27s33 44 33 78c0 32 -9.83301 57.667 -29.5 77s-45.167 29 -76.5 29zM295.002 317c-30.667 0 -57.5 -10.333 -80.5 -31s-34.5 -49 -34.5 -85c0 -35.333 10.667 -64 32 -86s49 -33 83 -33s61.667 11 83 33s32 50.667 32 86
c0 36 -11.5 64.333 -34.5 85s-49.833 31 -80.5 31z" />
    <glyph glyph-name="nine" unicode="9" 
d="M217 -24l-76.999 57.998l167 225c-10 -2 -20.333 -3 -31 -3c-56 0 -106 19.833 -150 59.5s-66 94.5 -66 164.5c0 66.667 21.333 122.334 64 167.001s100 67 172 67c73.333 0 130.666 -22.667 171.999 -68s62 -98.666 62 -159.999c0 -54.667 -23 -113.667 -69 -177z
M297.001 351.998c37.333 0 67.833 12.167 91.5 36.5s35.5 56.5 35.5 96.5c0 38.667 -12 70.5 -36 95.5s-55 37.5 -93 37.5s-69 -12.5 -93 -37.5s-36 -56.833 -36 -95.5c0 -39.333 12 -71.333 36 -96s55.667 -37 95 -37z" />
    <glyph glyph-name="colon" unicode=":" horiz-adv-x="260" 
d="M64 388c0 18 6.5 33.5 19.5 46.5s28.5 19.5 46.5 19.5s33.5 -6.5 46.5 -19.5s19.5 -28.5 19.5 -46.5s-6.5 -33.5 -19.5 -46.5s-28.5 -19.5 -46.5 -19.5s-33.5 6.5 -46.5 19.5s-19.5 28.5 -19.5 46.5zM64 52c0 18 6.5 33.5 19.5 46.5s28.5 19.5 46.5 19.5
s33.5 -6.5 46.5 -19.5s19.5 -28.5 19.5 -46.5s-6.5 -33.5 -19.5 -46.5s-28.5 -19.5 -46.5 -19.5s-33.5 6.5 -46.5 19.5s-19.5 28.5 -19.5 46.5z" />
    <glyph glyph-name="semicolon" unicode=";" horiz-adv-x="260" 
d="M64 388c0 18 6.5 33.5 19.5 46.5s28.5 19.5 46.5 19.5s33.5 -6.5 46.5 -19.5s19.5 -28.5 19.5 -46.5s-6.5 -33.5 -19.5 -46.5s-28.5 -19.5 -46.5 -19.5s-33.5 6.5 -46.5 19.5s-19.5 28.5 -19.5 46.5zM-4 -134l106 264l94 -34l-130 -260z" />
    <glyph glyph-name="less" unicode="&#x3c;" horiz-adv-x="522" 
d="M33 392l456 222v-102l-346 -163l346 -163v-102l-456 222v86z" />
    <glyph glyph-name="equal" unicode="=" horiz-adv-x="522" 
d="M33 400v88h456v-88h-456zM33 230v88h456v-88h-456z" />
    <glyph glyph-name="greater" unicode="&#x3e;" horiz-adv-x="522" 
d="M489 306l-456 -222v102l346 163l-346 163v102l456 -222v-86z" />
    <glyph glyph-name="question" unicode="?" horiz-adv-x="450" 
d="M160 513l-104 0.00292969c-1.33301 16.667 -2 28.667 -2 36c0 45.333 14.667 84.166 44 116.499s71.666 48.5 126.999 48.5c50.667 0 91.834 -15.667 123.501 -47s47.5 -74.666 47.5 -129.999c0 -51.333 -20.667 -91.333 -62 -120c-22 -15.333 -57 -32 -105 -50
c-8.66699 -3.33301 -15.334 -6 -20.001 -8s-10.5 -5.5 -17.5 -10.5s-12.167 -11 -15.5 -18s-5 -15.167 -5 -24.5c0 -14.667 4.83301 -27.167 14.5 -37.5s22.167 -15.5 37.5 -15.5c20.667 0 35.667 8.33301 45 25c7.33301 13.333 10.333 28.666 9 45.999h104
c-2 -39.333 -11.333 -71.333 -28 -96c-30 -44.667 -73.667 -67 -131 -67c-42 0 -78.333 13.5 -109 40.5s-46 63.833 -46 110.5c0 23.333 3.66699 43.666 11 60.999s18.333 31.666 33 42.999s27.334 19.666 38.001 24.999s24.667 11.333 42 18c43.333 16 69 27.333 77 34
c16 12.667 24 31.334 24 56.001c0 22.667 -5.83301 40.5 -17.5 53.5s-28.167 19.5 -49.5 19.5c-44.667 0 -67 -25 -67 -75c0 -4 0.333008 -10.333 1 -19s1 -13.667 1 -15zM159 52.0029c0 18 6.5 33.5 19.5 46.5s28.5 19.5 46.5 19.5s33.5 -6.5 46.5 -19.5
s19.5 -28.5 19.5 -46.5s-6.5 -33.5 -19.5 -46.5s-28.5 -19.5 -46.5 -19.5s-33.5 6.5 -46.5 19.5s-19.5 28.5 -19.5 46.5z" />
    <glyph glyph-name="at" unicode="@" horiz-adv-x="764" 
d="M494 461l11.001 54.001h72l-41 -211c-4 -21.333 -6 -37 -6 -47c0 -14.667 3.5 -25.334 10.5 -32.001s14.5 -10 22.5 -10c10.667 0 22.334 4.5 35.001 13.5s22.334 18.5 29.001 28.5c10 14 18.333 35 25 63s10 54.333 10 79c0 64.667 -22.5 122.334 -67.5 173.001
s-109.167 76 -192.5 76c-84.667 0 -155.834 -29.333 -213.501 -88s-86.5 -130.667 -86.5 -216c0 -60.667 16 -116.334 48 -167.001s75.667 -86.334 131 -107.001c39.333 -14 81.666 -21 126.999 -21c72 0 140.667 14.333 206 43l18 -64c-66 -27.333 -141.333 -41 -226 -41
c-103.333 0 -188 28.333 -254 85c-78.667 67.333 -118 158.333 -118 273c0 106 34.5 193.333 103.5 262s156.167 103 261.5 103c95.333 0 174.333 -27.833 237 -83.5s94 -131.167 94 -226.5c0 -75.333 -16.667 -135 -50 -179
c-14.667 -19.333 -32.834 -35.166 -54.501 -47.499s-43.834 -18.5 -66.501 -18.5c-7.33301 0 -14.833 0.666992 -22.5 2s-18.167 7.33301 -31.5 18s-21.666 25.667 -24.999 45c-33.333 -47.333 -77 -71 -131 -71c-41.333 0 -76.333 14.833 -105 44.5s-43 70.834 -43 123.501
c0 64.667 19 116 57 154s80.333 57 127 57c10.667 0 21.667 -1.16699 33 -3.5s25 -8.83301 41 -19.5s27.667 -25.334 35 -44.001zM360.001 223.001c30.667 0 57.166 13.332 79.499 39.999s33.5 60.334 33.5 101.001c0 6.66699 -0.666992 13.667 -2 21
s-4.16602 17 -8.49902 29s-12.5 21.667 -24.5 29s-26.667 11 -44 11c-30 0 -56 -12.167 -78 -36.5s-33 -57.5 -33 -99.5c0 -30 7.33301 -53.333 22 -70s33 -25 55 -25z" />
    <glyph glyph-name="A" unicode="A" horiz-adv-x="688" 
d="M568 0l-74 170h-297l-77 -170h-116l348 740l332 -740h-116zM240 270h212l-104 236z" />
    <glyph glyph-name="B" unicode="B" horiz-adv-x="546" 
d="M80 700l105.999 0.00390625c28 0 48.167 -0.333008 60.5 -1s29.833 -3.83398 52.5 -9.50098s42.667 -14.5 60 -26.5c52.667 -36.667 79 -89.334 79 -158.001c0 -53.333 -20.667 -96 -62 -128c40.667 -12.667 71.167 -34.834 91.5 -66.501s30.5 -65.834 30.5 -102.501
c0 -67.333 -23.333 -120.333 -70 -159c-18.667 -15.333 -41 -26.833 -67 -34.5s-46.167 -12 -60.5 -13s-34.166 -1.5 -59.499 -1.5h-161v700zM187.999 600.004v-201h32c76 0 114 34.333 114 103c0 65.333 -36.667 98 -110 98h-36zM187.999 311.004l0.000976562 -210.999h64
c51.333 0 87.166 10.5 107.499 31.5s30.5 45.833 30.5 74.5c0 29.333 -10.167 54.166 -30.5 74.499s-55.5 30.5 -105.5 30.5h-66z" />
    <glyph glyph-name="C" unicode="C" horiz-adv-x="646" 
d="M600 662l0.00195312 -126c-53.333 52 -116.333 78 -189 78c-75.333 0 -136 -25 -182 -75s-69 -114 -69 -192c0 -75.333 23.5 -137.666 70.5 -186.999s107.167 -74 180.5 -74c69.333 0 132.333 27 189 81v-128c-55.333 -35.333 -119.333 -53 -192 -53
c-96.667 0 -179.334 32.333 -248.001 97c-74.667 71.333 -112 159.333 -112 264c0 111.333 37.333 202.666 112 273.999c64.667 62 149 93 253 93c73.333 0 135.666 -17.333 186.999 -52z" />
    <glyph glyph-name="D" unicode="D" horiz-adv-x="670" 
d="M80 700l146.999 -0.000976562c57.333 0 105.833 -4.5 145.5 -13.5s77.834 -27.167 114.501 -54.5c90 -67.333 135 -161.666 135 -282.999s-47 -215.333 -141 -282c-38 -26.667 -76.5 -44.5 -115.5 -53.5s-85.833 -13.5 -140.5 -13.5h-145v700zM187.999 599.999v-499.999
h45c80.667 0 142.667 16.667 186 50c60.667 46 91 112.333 91 199c0 40.667 -7.83301 79.167 -23.5 115.5s-37.834 65.166 -66.501 86.499c-43.333 32.667 -105.666 49 -186.999 49h-45z" />
    <glyph glyph-name="E" unicode="E" horiz-adv-x="518" 
d="M466 700v-100h-278v-168h270v-100h-270v-232h278v-100h-386v700h386z" />
    <glyph glyph-name="F" unicode="F" horiz-adv-x="466" 
d="M430 700v-100h-242v-168h234v-100h-234v-332h-108v700h350z" />
    <glyph glyph-name="G" unicode="G" horiz-adv-x="780" 
d="M444 264l0.000976562 100h288v-22c0 -90 -21 -164.667 -63 -224c-62.667 -88 -150.334 -132 -263.001 -132c-100 0 -184 34 -252 102c-70.667 70.667 -106 157.667 -106 261c0 102.667 33.333 188.667 100 258c68 71.333 156 107 264 107
c79.333 0 150.333 -22.333 213 -67c31.333 -22.667 57 -48 77 -76l-76 -72c-52.667 76.667 -124 115 -214 115c-73.333 0 -133.666 -25 -180.999 -75s-71 -113.333 -71 -190c0 -76 24.167 -138.833 72.5 -188.5s107.166 -74.5 176.499 -74.5c54.667 0 101 16.667 139 50
s61.333 76 70 128h-174z" />
    <glyph glyph-name="H" unicode="H" horiz-adv-x="674" 
d="M188 700v-274h298v274h108v-700h-108v326h-298v-326h-108v700h108z" />
    <glyph glyph-name="I" unicode="I" horiz-adv-x="268" 
d="M80 700h108v-700h-108v700z" />
    <glyph glyph-name="J" unicode="J" horiz-adv-x="376" 
d="M188 700l108 -0.00195312v-453c0 -71.333 -8.66699 -124.666 -26 -159.999c-16 -33.333 -38.5 -58.5 -67.5 -75.5s-61.167 -25.5 -96.5 -25.5c-46.667 0 -88 12 -124 36l52 90c20.667 -17.333 45 -26 73 -26c34 0 57.667 15.667 71 47
c6.66699 14.667 10 52.334 10 113.001v454z" />
    <glyph glyph-name="K" unicode="K" horiz-adv-x="610" 
d="M188 700v-279l270 279h140l-316 -317l318 -383h-142l-270 336v-336h-108v700h108z" />
    <glyph glyph-name="L" unicode="L" horiz-adv-x="408" 
d="M80 700h108v-600h204v-100h-312v700z" />
    <glyph glyph-name="M" unicode="M" horiz-adv-x="888" 
d="M170 0h-110l147 752l243 -542l246 542l132 -752h-110l-70 422l-204 -454l-201 455z" />
    <glyph glyph-name="N" unicode="N" horiz-adv-x="774" 
d="M188 0h-108v746l506 -530v484h108v-742l-506 530v-488z" />
    <glyph glyph-name="O" unicode="O" horiz-adv-x="824" 
d="M412 714c104 0 190.667 -35 260 -105s104 -156.667 104 -260c0 -102.667 -34.5 -188.834 -103.5 -258.501s-155.833 -104.5 -260.5 -104.5s-191.5 34.833 -260.5 104.5s-103.5 155.834 -103.5 258.501c0 103.333 34.667 190 104 260s156 105 260 105zM412 86
c74 0 134.5 24.5 181.5 73.5s70.5 112.167 70.5 189.5s-23.5 140.833 -70.5 190.5s-107.5 74.5 -181.5 74.5s-134.5 -24.833 -181.5 -74.5s-70.5 -113.167 -70.5 -190.5s23.5 -140.5 70.5 -189.5s107.5 -73.5 181.5 -73.5z" />
    <glyph glyph-name="P" unicode="P" horiz-adv-x="498" 
d="M80 700h154c63.333 0 114.333 -12.667 153 -38c58 -38 87 -94.667 87 -170c0 -63.333 -22.667 -114.333 -68 -153c-42.667 -36.667 -99.667 -55 -171 -55h-47v-284h-108v700zM188 600v-216h47c87.333 0 131 36.333 131 109c0 71.333 -44 107 -132 107h-46z" />
    <glyph glyph-name="Q" unicode="Q" horiz-adv-x="826" 
d="M660 -14l-51 52.998c-53.333 -35.333 -117 -53 -191 -53c-61.333 0 -116.5 11 -165.5 33s-88 51 -117 87s-50.833 74.833 -65.5 116.5s-22 83.834 -22 126.501c0 103.333 34.667 190 104 260s156.333 105 261 105c104 0 190.667 -35 260 -105s104 -156.667 104 -260
c0 -97.333 -32.333 -180.666 -97 -249.999l114 -113h-134zM501 276.998l104.999 -106c39.333 48 59 107.333 59 178c0 77.333 -23.667 140.833 -71 190.5s-107.666 74.5 -180.999 74.5c-74 0 -134.667 -24.833 -182 -74.5s-71 -113.167 -71 -190.5s23.667 -140.5 71 -189.5
s108 -73.5 182 -73.5c44.667 0 84 9.66699 118 29l-164 162h134z" />
    <glyph glyph-name="R" unicode="R" horiz-adv-x="556" 
d="M80 700l125 0.000976562c82.667 0 144.334 -13.667 185.001 -41c30 -20 51.333 -45.333 64 -76s19 -60.334 19 -89.001c0 -49.333 -14.333 -91.5 -43 -126.5s-66.334 -57.833 -113.001 -68.5l219 -299h-130l-200 287h-18v-287h-108v700zM188 600.001
l-0.000976562 -220.998h33c9.33301 0 18.166 0.333008 26.499 1s20.333 3 36 7s28.834 9.66699 39.501 17s20.334 18.666 29.001 33.999s13 33.666 13 54.999c0 71.333 -47 107 -141 107h-36z" />
    <glyph glyph-name="S" unicode="S" horiz-adv-x="539" 
d="M471 595l-86.001 -50.001c-7.33301 17.333 -18 32 -32 44c-19.333 16.667 -43.666 25 -72.999 25c-28.667 0 -52.5 -7.33301 -71.5 -22s-28.5 -35 -28.5 -61c0 -37.333 25 -66 75 -86l70 -28c110.667 -43.333 166 -112.333 166 -207c0 -66 -21.333 -119.833 -64 -161.5
s-97 -62.5 -163 -62.5c-68.667 0 -123.667 23.667 -165 71c-33.333 38 -53 83.333 -59 136l106 23c1.33301 -34.667 11.333 -64.334 30 -89.001c20.667 -27.333 50.667 -41 90 -41c38 0 67 11.5 87 34.5s30 50.5 30 82.5c0 31.333 -9.33301 55.833 -28 73.5
s-43 32.834 -73 45.501l-67 29c-95.333 41.333 -143 100.333 -143 177c0 54.667 20 99.334 60 134.001s88.333 52 145 52c57.333 0 104 -16 140 -48c22 -19.333 40 -43 54 -71z" />
    <glyph glyph-name="T" unicode="T" horiz-adv-x="448" 
d="M438 600h-160v-600h-108v600h-160v100h428v-100z" />
    <glyph glyph-name="U" unicode="U" horiz-adv-x="678" 
d="M80 700h108.002v-422c0 -54.667 7 -95 21 -121c11.333 -20.667 28.166 -37.667 50.499 -51s48.833 -20 79.5 -20c61.333 0 104.666 23.667 129.999 71c14 26.667 21 67 21 121v422h108v-450c0 -73.333 -21.667 -134 -65 -182c-49.333 -54.667 -114 -82 -194 -82
s-144.667 27.333 -194 82c-43.333 48 -65 108.667 -65 182v450z" />
    <glyph glyph-name="V" unicode="V" horiz-adv-x="630" 
d="M4 700h116l195 -488l195 488h116l-311 -744z" />
    <glyph glyph-name="W" unicode="W" horiz-adv-x="986" 
d="M4 700h116l184 -468l189 502l183 -502l190 468h116l-313 -744l-182 495l-185 -495z" />
    <glyph glyph-name="X" unicode="X" horiz-adv-x="572" 
d="M10 0l220 365l-193 335h120l136 -237l140 237h120l-202 -335l211 -365h-120l-153 268l-159 -268h-120z" />
    <glyph glyph-name="Y" unicode="Y" horiz-adv-x="566" 
d="M229 0v302l-229 398h120l163 -282l163 282h120l-229 -398v-302h-108z" />
    <glyph glyph-name="Z" unicode="Z" horiz-adv-x="578" 
d="M548 700l-344 -600h336v-100h-510l344 600h-288v100h462z" />
    <glyph glyph-name="bracketleft" unicode="[" horiz-adv-x="326" 
d="M280 643h-90v-761h90v-92h-192v945h192v-92z" />
    <glyph glyph-name="backslash" unicode="\" horiz-adv-x="562" 
d="M562 -184l-84 -38l-400 928l84 38z" />
    <glyph glyph-name="bracketright" unicode="]" horiz-adv-x="326" 
d="M46 -118h90v761h-90v92h192v-945h-192v92z" />
    <glyph glyph-name="asciicircum" unicode="^" horiz-adv-x="524" 
d="M262 622l-136 -252h-110l180 330h132l180 -330h-110z" />
    <glyph glyph-name="underscore" unicode="_" horiz-adv-x="420" 
d="M0 -150v92h420v-92h-420z" />
    <glyph glyph-name="grave" unicode="`" horiz-adv-x="512" 
d="M250 508l-164 152l94 48l126 -164z" />
    <glyph glyph-name="a" unicode="a" horiz-adv-x="552" 
d="M388 442h102.001v-442h-102v46c-34 -40 -78.667 -60 -134 -60c-64.667 0 -116.5 23.333 -155.5 70s-58.5 101.667 -58.5 165s19.333 118 58 164s91 69 157 69c57.333 0 101.666 -21.333 132.999 -64v52zM270.001 362c-36.667 0 -66.5 -13.668 -89.5 -41.001
s-34.5 -61.333 -34.5 -102c0 -39.333 11.167 -72.666 33.5 -99.999s52.5 -41 90.5 -41s68.167 13.333 90.5 40s33.5 60.667 33.5 102c0 45.333 -12 80.333 -36 105s-53.333 37 -88 37z" />
    <glyph glyph-name="b" unicode="b" horiz-adv-x="552" 
d="M164 735l0.000976562 -345c31.333 42.667 75.666 64 132.999 64c66 0 118.333 -23 157 -69s58 -100.667 58 -164c0 -70.667 -21.167 -127.5 -63.5 -170.5s-92.833 -64.5 -151.5 -64.5c-54 0 -98.333 20 -133 60v-46h-102v735h102zM283.001 362
c-34.667 0 -64.165 -12.499 -88.498 -37.499s-36.5 -60.5 -36.5 -106.5c0 -40.667 11.167 -74.167 33.5 -100.5s52.833 -39.5 91.5 -39.5c37.333 0 67.166 13.667 89.499 41s33.5 60.666 33.5 99.999c0 40.667 -11.333 74.667 -34 102s-52.334 41 -89.001 41z" />
    <glyph glyph-name="c" unicode="c" horiz-adv-x="438" 
d="M406 422l-0.000976562 -134c-14 22.667 -32.5 40.667 -55.5 54s-47.167 20 -72.5 20c-35.333 0 -66.166 -12.667 -92.499 -38s-39.5 -60 -39.5 -104c0 -40 11.833 -73.667 35.5 -101s55.5 -41 95.5 -41c52.667 0 95.667 25 129 75v-134c-38 -22 -78.667 -33 -122 -33
c-76 0 -136.333 22.667 -181 68c-42 42 -63 96.667 -63 164c0 72 24 130.667 72 176c42.667 40 98 60 166 60c50 0 92.667 -10.667 128 -32z" />
    <glyph glyph-name="d" unicode="d" horiz-adv-x="552" 
d="M388 390l0.000976562 345h102v-735h-102v46c-34 -40 -79.667 -60 -137 -60c-62.667 0 -113.5 23.333 -152.5 70s-58.5 102 -58.5 166c0 62.667 19.333 117 58 163s91 69 157 69c57.333 0 101.666 -21.333 132.999 -64zM269.001 362
c-36.667 0 -66.332 -13.668 -88.999 -41.001s-34 -61.666 -34 -102.999c0 -39.333 11.167 -72.5 33.5 -99.5s52.166 -40.5 89.499 -40.5c38.667 0 69.167 13.167 91.5 39.5s33.5 59.833 33.5 100.5c0 46 -12.167 81.5 -36.5 106.5s-53.833 37.5 -88.5 37.5z" />
    <glyph glyph-name="e" unicode="e" horiz-adv-x="506" 
d="M380 163l85.999 -47.999c-16.667 -30.667 -36 -55.667 -58 -75c-40.667 -36 -92 -54 -154 -54c-56.667 0 -106.5 20 -149.5 60s-64.5 97.333 -64.5 172c0 71.333 19.333 128.5 58 171.5s90.334 64.5 155.001 64.5c75.333 0 131.333 -27 168 -81
c27.333 -40.667 41 -94.334 41 -161.001v-16h-316c0.666992 -37.333 13.167 -66.333 37.5 -87s51.5 -31 81.5 -31c26 0 49.333 8 70 24c18.667 14 33.667 34.333 45 61zM151.999 280.001h205.001c-6 25.333 -18.167 45.333 -36.5 60s-40.166 22 -65.499 22
c-24.667 0 -46.334 -7.5 -65.001 -22.5s-31.334 -34.833 -38.001 -59.5z" />
    <glyph glyph-name="f" unicode="f" horiz-adv-x="284" 
d="M290 350l-111.999 0.000976562v-350h-102v350h-56v92h56v140c0 61.333 15.333 105.666 46 132.999c25.333 22 56.666 33 93.999 33c21.333 0 46 -5.33301 74 -16v-104c-24.667 13.333 -46.667 20 -66 20c-16.667 0 -28.667 -5.33301 -36 -16
c-6.66699 -10 -10 -26.667 -10 -50v-140h112v-92z" />
    <glyph glyph-name="g" unicode="g" horiz-adv-x="552" 
d="M388 394l0.000976562 48h102v-423c0 -22.667 -0.333008 -40.167 -1 -52.5s-4.33398 -29.5 -11.001 -51.5s-16.667 -41.333 -30 -58c-42 -54 -101.333 -81 -178 -81c-53.333 0 -99.5 13.833 -138.5 41.5s-64.833 68.167 -77.5 121.5h102c16.667 -47.333 55 -71 115 -71
c25.333 0 46.5 4.5 63.5 13.5s29 20.833 36 35.5s11.667 27.667 14 39s3.5 23 3.5 35v58c-34.667 -42 -79.334 -63 -134.001 -63c-64.667 0 -116.5 23.167 -155.5 69.5s-58.5 101.5 -58.5 165.5c0 63.333 19.333 118 58 164s91.334 69 158.001 69
c54.667 0 98.667 -20 132 -60zM269.001 362c-36.667 0 -66.332 -13.668 -88.999 -41.001s-34 -60.666 -34 -99.999c0 -40.667 11.167 -74.667 33.5 -102s52.166 -41 89.499 -41c38.667 0 69.167 13.167 91.5 39.5s33.5 59.833 33.5 100.5c0 46 -12.167 81.5 -36.5 106.5
s-53.833 37.5 -88.5 37.5z" />
    <glyph glyph-name="h" unicode="h" horiz-adv-x="504" 
d="M62 0l-0.00195312 735.001h102v-331c30.667 33.333 70.334 50 119.001 50c60.667 0 104.334 -20 131.001 -60c18.667 -27.333 28 -68.333 28 -123v-271h-102v261c0 14 -0.166992 23.833 -0.5 29.5s-2 13.167 -5 22.5s-7.83301 17.666 -14.5 24.999
c-13.333 16 -33 24 -59 24c-34 0 -59.333 -12.667 -76 -38c-14 -20.667 -21 -57.667 -21 -111v-213h-102z" />
    <glyph glyph-name="i" unicode="i" horiz-adv-x="226" 
d="M62 442h102v-442h-102v442zM47 624c0 18 6.5 33.5 19.5 46.5s28.5 19.5 46.5 19.5s33.5 -6.5 46.5 -19.5s19.5 -28.5 19.5 -46.5s-6.5 -33.5 -19.5 -46.5s-28.5 -19.5 -46.5 -19.5s-33.5 6.5 -46.5 19.5s-19.5 28.5 -19.5 46.5z" />
    <glyph glyph-name="j" unicode="j" horiz-adv-x="226" 
d="M62 442h102v-652h-102v652zM47 624c0 18 6.5 33.5 19.5 46.5s28.5 19.5 46.5 19.5s33.5 -6.5 46.5 -19.5s19.5 -28.5 19.5 -46.5s-6.5 -33.5 -19.5 -46.5s-28.5 -19.5 -46.5 -19.5s-33.5 6.5 -46.5 19.5s-19.5 28.5 -19.5 46.5z" />
    <glyph glyph-name="k" unicode="k" horiz-adv-x="460" 
d="M62 735h102v-445l146 152h134l-189 -184l203 -258h-130l-164 212v-212h-102v735z" />
    <glyph glyph-name="l" unicode="l" horiz-adv-x="226" 
d="M62 735h102v-735h-102v735z" />
    <glyph glyph-name="m" unicode="m" horiz-adv-x="730" 
d="M62 0v442h102v-41c28 35.333 64.667 53 110 53c52.667 0 90.667 -22 114 -66c28.667 44 72.334 66 131.001 66c56.667 0 98.667 -23.333 126 -70c15.333 -25.333 23 -62.333 23 -111v-273h-102v243c0 34.667 -3 61 -9 79c-10.667 26.667 -30.334 40 -59.001 40
c-27.333 0 -48 -11.333 -62 -34c-13.333 -20 -20 -53.333 -20 -100v-228h-102v243c0 35.333 -3.33301 61.666 -10 78.999c-10 26.667 -29.667 40 -59 40c-26 0 -46.667 -11.333 -62 -34c-12.667 -19.333 -19 -52.666 -19 -99.999v-228h-102z" />
    <glyph glyph-name="n" unicode="n" horiz-adv-x="504" 
d="M62 0l0.000976562 442.002h102v-41c30.667 35.333 71 53 121 53c59.333 0 102.666 -20 129.999 -60c18 -26.667 27 -67.667 27 -123v-271h-102v246c0 13.333 -0.166992 23 -0.5 29s-1.83301 15.667 -4.5 29s-6.66699 23.333 -12 30s-13.5 13 -24.5 19s-24.5 9 -40.5 9
c-16.667 0 -31.167 -3.16699 -43.5 -9.5s-21.666 -14 -27.999 -23s-11.333 -20.833 -15 -35.5s-5.83398 -27.834 -6.50098 -39.501s-1 -25.834 -1 -42.501v-212h-102z" />
    <glyph glyph-name="o" unicode="o" horiz-adv-x="552" 
d="M276 454c67.333 0 123.5 -22.167 168.5 -66.5s67.5 -100.166 67.5 -167.499s-22.5 -123.166 -67.5 -167.499s-101.167 -66.5 -168.5 -66.5s-123.5 22.167 -168.5 66.5s-67.5 100.166 -67.5 167.499s22.5 123.166 67.5 167.499s101.167 66.5 168.5 66.5zM276 78
c35.333 0 65.833 11.833 91.5 35.5s38.5 58.834 38.5 105.501c0 48 -12.833 83.833 -38.5 107.5s-56.167 35.5 -91.5 35.5s-65.833 -11.833 -91.5 -35.5s-38.5 -59.5 -38.5 -107.5c0 -46.667 12.833 -81.834 38.5 -105.501s56.167 -35.5 91.5 -35.5z" />
    <glyph glyph-name="p" unicode="p" horiz-adv-x="552" 
d="M164 442v-47.999c33.333 40 78 60 134 60c59.333 0 109.833 -21.333 151.5 -64s62.5 -98.667 62.5 -168s-21.667 -126 -65 -170s-92.666 -66 -147.999 -66c-11.333 0 -23.333 1.33301 -36 4s-28.834 9.16699 -48.501 19.5s-36.5 24.166 -50.5 41.499v-261h-102v652h102z
M283 362.001c-34 0 -63.333 -12.667 -88 -38s-37 -60.333 -37 -105c0 -40 11 -73.5 33 -100.5s52.667 -40.5 92 -40.5c37.333 0 67.166 13.667 89.499 41s33.5 61.333 33.5 102c0 44 -12.167 78.5 -36.5 103.5s-53.166 37.5 -86.499 37.5z" />
    <glyph glyph-name="q" unicode="q" horiz-adv-x="552" 
d="M388 394l-0.000976562 48h102v-652h-102v259c-33.333 -42 -78.666 -63 -135.999 -63c-64 0 -115.333 23.167 -154 69.5s-58 101.5 -58 165.5c0 63.333 19.333 118 58 164s91 69 157 69c56.667 0 101 -20 133 -60zM268.999 362c-36.667 0 -66.332 -13.5 -88.999 -40.5
s-34 -60.833 -34 -101.5c0 -41.333 11.167 -75.333 33.5 -102s52.166 -40 89.499 -40c35.333 0 65 12.167 89 36.5s36 58.833 36 103.5c0 46 -12.167 81.5 -36.5 106.5s-53.833 37.5 -88.5 37.5z" />
    <glyph glyph-name="r" unicode="r" horiz-adv-x="346" 
d="M62 0v441.999h102v-40c28 34.667 63 52 105 52c30 0 57.667 -8.66699 83 -26l-46 -93c-16.667 14 -36 21 -58 21c-29.333 0 -51.333 -11.667 -66 -35c-12 -19.333 -18 -49.666 -18 -90.999v-230h-102z" />
    <glyph glyph-name="s" unicode="s" horiz-adv-x="374" 
d="M320 367l-85 -44.999c-8.66699 26.667 -25 40 -49 40c-22.667 0 -34 -9.66699 -34 -29c0 -8 2.5 -15 7.5 -21s11 -11 18 -15s18.167 -9.66699 33.5 -17c38.667 -16.667 66.667 -31.667 84 -45c35.333 -26 53 -59 53 -99c0 -46.667 -16.667 -83.334 -50 -110.001
s-70.333 -40 -111 -40c-32.667 0 -63.167 9.33301 -91.5 28s-48.833 46 -61.5 82l86 39c12 -38 36.333 -57 73 -57c16 0 28.167 4.33301 36.5 13s12.5 20.334 12.5 35.001c0 12.667 -3.33301 23 -10 31s-18.667 16.333 -36 25c-4 2 -17.167 8.16699 -39.5 18.5
s-38.5 18.5 -48.5 24.5c-18 11.333 -31.167 24.333 -39.5 39s-12.5 34 -12.5 58c0 37.333 12 68.666 36 93.999s58 38 102 38c59.333 0 101.333 -29 126 -87z" />
    <glyph glyph-name="t" unicode="t" horiz-adv-x="252" 
d="M248 350h-78v-350h-102v350h-44v92h44v158h102v-158h78v-92z" />
    <glyph glyph-name="u" unicode="u" horiz-adv-x="502" 
d="M62 442h102v-254c0 -37.333 6.33301 -64 19 -80c15.333 -20 38 -30 68 -30s52.667 10 68 30c12.667 16 19 42.667 19 80v254h102v-256c0 -32 -2.83301 -59.167 -8.5 -81.5s-18.5 -43.5 -38.5 -63.5c-35.333 -36.667 -83.333 -55 -144 -55c-57.333 0 -104 18.333 -140 55
c-20 20 -32.833 41.167 -38.5 63.5s-8.5 49.5 -8.5 81.5v256z" />
    <glyph glyph-name="v" unicode="v" horiz-adv-x="470" 
d="M6 442h116l113 -252l113 252h116l-229 -472z" />
    <glyph glyph-name="w" unicode="w" horiz-adv-x="720" 
d="M360 252l-124 -282l-230 472h116l114 -252l124 290l124 -290l114 252h116l-230 -472z" />
    <glyph glyph-name="x" unicode="x" horiz-adv-x="520" 
d="M263 165l-131 -165h-126l195 239l-157 203h122l97 -129l99 129h126l-163 -203l189 -239h-124z" />
    <glyph glyph-name="y" unicode="y" horiz-adv-x="506" 
d="M49 -210l154 292l-197 360h124l130 -249l124 249h116l-335 -652h-116z" />
    <glyph glyph-name="z" unicode="z" horiz-adv-x="502" 
d="M494 442l-284 -348h262v-94h-464l286 347h-226v95h426z" />
    <glyph glyph-name="braceleft" unicode="{" horiz-adv-x="512" 
d="M295 542v-155.002c0 -35.333 -4 -61.333 -12 -78c-4.66699 -9.33301 -11.334 -18.166 -20.001 -26.499s-15.667 -14 -21 -17s-9.33301 -4.83301 -12 -5.5c2.66699 -0.666992 6.66699 -2.5 12 -5.5s12.333 -8.66699 21 -17s15.334 -17.166 20.001 -26.499
c8 -16.667 12 -42.667 12 -78v-155c0 -32.667 6 -55 18 -67c11.333 -11.333 36.333 -17 75 -17h8v-88h-49c-49.333 0 -85.333 8.33301 -108 25c-30.667 22 -46 62 -46 120v180c0 50 -19.667 79 -59 87v84c39.333 8 59 37 59 87v180c0 58 15.333 98 46 120
c22.667 16.667 58.667 25 108 25h49v-88h-8c-38.667 0 -63.667 -5.66699 -75 -17c-12 -12 -18 -34.333 -18 -67z" />
    <glyph glyph-name="bar" unicode="|" horiz-adv-x="504" 
d="M202 -262v1049h100v-1049h-100z" />
    <glyph glyph-name="braceright" unicode="}" horiz-adv-x="512" 
d="M235 -22v155.002c0 35.333 4 61.333 12 78c4.66699 9.33301 11.334 18.166 20.001 26.499s15.667 14 21 17s9.33301 4.83301 12 5.5c-2.66699 0.666992 -6.66699 2.5 -12 5.5s-12.333 8.66699 -21 17s-15.334 17.166 -20.001 26.499c-8 16.667 -12 42.667 -12 78v155
c0 32.667 -6 55 -18 67c-11.333 11.333 -36.333 17 -75 17h-8v88h49c49.333 0 85.333 -8.33301 108 -25c30.667 -22 46 -62 46 -120v-180c0 -50 19.667 -79 59 -87v-84c-39.333 -8 -59 -37 -59 -87v-180c0 -58 -15.333 -98 -46 -120c-22.667 -16.667 -58.667 -25 -108 -25
h-49v88h8c38.667 0 63.667 5.66699 75 17c12 12 18 34.333 18 67z" />
    <glyph glyph-name="asciitilde" unicode="~" horiz-adv-x="692" 
d="M540 437l59.998 -33.999c-17.333 -42.667 -40.333 -75.334 -69 -98.001c-24.667 -19.333 -53.667 -29 -87 -29c-24.667 0 -64 11 -118 33c-46 18.667 -76.333 28 -91 28c-20.667 0 -38.667 -7.66699 -54 -23c-12.667 -12.667 -22.667 -28.667 -30 -48l-59 38
c16.667 38 34.334 67 53.001 87c26.667 29.333 58.667 44 96 44c30 0 68.333 -10.667 115 -32c42.667 -19.333 75.334 -29 98.001 -29c20.667 0 38 6 52 18c12 10 23.333 25 34 45z" />
    <glyph glyph-name="currency" unicode="&#xa4;" horiz-adv-x="698" 
d="M95 693l104 -104c43.333 33.333 93.333 50 150 50s106.667 -16.667 150 -50l104 104l57 -57l-104 -104c31.333 -40.667 47 -89.667 47 -147c0 -56.667 -15.667 -105.334 -47 -146.001l104 -104l-57 -57l-104 104c-41.333 -34 -91.333 -51 -150 -51s-108.667 17 -150 51
l-104 -104l-57 57l104 104c-31.333 40.667 -47 89.334 -47 146.001c0 57.333 15.667 106.333 47 147l-104 104zM349 221c45.333 0 83.333 15.5 114 46.5s46 70.167 46 117.5s-15.333 86.5 -46 117.5s-68.667 46.5 -114 46.5s-83.333 -15.5 -114 -46.5
s-46 -70.167 -46 -117.5s15.333 -86.5 46 -117.5s68.667 -46.5 114 -46.5z" />
    <glyph glyph-name="brokenbar" unicode="&#xa6;" horiz-adv-x="504" 
d="M202 409v378h100v-378h-100zM202 -262v377h100v-377h-100z" />
    <glyph glyph-name="section" unicode="&#xa7;" horiz-adv-x="588" 
d="M504 534l-100.002 0.000976562c3.33301 26.667 -2.33398 52 -17.001 76c-17.333 28 -43 42 -77 42c-31.333 0 -55.833 -9.83301 -73.5 -29.5s-26.5 -42.167 -26.5 -67.5c0 -22.667 6.66699 -40 20 -52s31.666 -22.667 54.999 -32c10.667 -4 25.334 -9.16699 44.001 -15.5
s33 -11.333 43 -15s21.667 -9.16699 35 -16.5s25.666 -15.333 36.999 -24c40 -32.667 60 -76.334 60 -131.001c0 -38.667 -9.16699 -71.667 -27.5 -99s-42.166 -48.333 -71.499 -63c52.667 -26 79 -71.667 79 -137c0 -58.667 -18.667 -105.167 -56 -139.5
s-84.666 -51.5 -141.999 -51.5c-42 0 -78.667 9.16699 -110 27.5s-55.333 44.833 -72 79.5c-14 30.667 -20.667 63 -20 97h100c-1.33301 -23.333 4.33398 -44.666 17.001 -63.999c19.333 -29.333 47.666 -44 84.999 -44c32 0 56 9.16699 72 27.5s24 40.5 24 66.5
c0 25.333 -10.667 47 -32 65c-15.333 13.333 -46.666 27.666 -93.999 42.999c-51.333 18.667 -87.333 36.334 -108 53.001c-38.667 32 -58 77.667 -58 137c0 36 8.66699 68 26 96s42.333 48.667 75 62c-55.333 30 -83 75.667 -83 137c0 55.333 18.833 100.166 56.5 134.499
s85.834 51.5 144.501 51.5c74.667 0 129 -27 163 -81c23.333 -38 34 -82.333 32 -133zM296.998 371.001c-25.333 0 -48.5 -9 -69.5 -27s-31.5 -43.333 -31.5 -76c0 -30 9.5 -54.667 28.5 -74s43.167 -29 72.5 -29s53.5 9.83301 72.5 29.5s28.5 44.167 28.5 73.5
c0 32 -10.333 57.167 -31 75.5s-44 27.5 -70 27.5z" />
    <glyph glyph-name="copyright" unicode="&#xa9;" horiz-adv-x="792" 
d="M396 714c104 0 190.5 -34.833 259.5 -104.5s103.5 -156.5 103.5 -260.5s-34.5 -190.5 -103.5 -259.5s-155.5 -103.5 -259.5 -103.5s-190.5 34.5 -259.5 103.5s-103.5 155.5 -103.5 259.5s34.5 190.833 103.5 260.5s155.5 104.5 259.5 104.5zM396 660
c-88 0 -160.5 -29.667 -217.5 -89s-85.5 -133.333 -85.5 -222c0 -88 28.5 -161.5 85.5 -220.5s129.5 -88.5 217.5 -88.5s160.5 29.5 217.5 88.5s85.5 132.5 85.5 220.5c0 88.667 -28.5 162.667 -85.5 222s-129.5 89 -217.5 89zM536 535v-90.999
c-38 34.667 -79.333 52 -124 52c-42 0 -76.833 -14 -104.5 -42s-41.5 -63.333 -41.5 -106s13.667 -77.334 41 -104.001s62.666 -40 105.999 -40s84.333 17.667 123 53v-92c-39.333 -22 -80.666 -33 -123.999 -33c-64.667 0 -118.5 20.5 -161.5 61.5s-64.5 92.5 -64.5 154.5
c0 64 21.667 116.667 65 158s98.333 62 165 62c42 0 82 -11 120 -33z" />
    <glyph glyph-name="guillemotleft" unicode="&#xab;" horiz-adv-x="530" 
d="M144 228l136 -178l-68 -48l-172 226l172 226l68 -48zM340 228l136 -178l-68 -48l-172 226l172 226l68 -48z" />
    <glyph glyph-name="logicalnot" unicode="&#xac;" horiz-adv-x="522" 
d="M489 0h-102v188h-354v92h456v-280z" />
    <glyph glyph-name="registered" unicode="&#xae;" horiz-adv-x="792" 
d="M396 714c104 0 190.5 -34.833 259.5 -104.5s103.5 -156.5 103.5 -260.5s-34.5 -190.5 -103.5 -259.5s-155.5 -103.5 -259.5 -103.5s-190.5 34.5 -259.5 103.5s-103.5 155.5 -103.5 259.5s34.5 190.833 103.5 260.5s155.5 104.5 259.5 104.5zM396 660
c-88 0 -160.5 -29.667 -217.5 -89s-85.5 -133.333 -85.5 -222c0 -88 28.5 -161.5 85.5 -220.5s129.5 -88.5 217.5 -88.5s160.5 29.5 217.5 88.5s85.5 132.5 85.5 220.5c0 88.667 -28.5 162.667 -85.5 222s-129.5 89 -217.5 89zM257 561l108 -0.00195312
c100 0 150 -42.333 150 -127c0 -31.333 -8.33301 -57.166 -25 -77.499s-39 -33.166 -67 -38.499l140 -177h-90l-124 166h-20v-166h-72v420zM329 494.998v-122h27c58 0 87 20.333 87 61s-28.333 61 -85 61h-29z" />
    <glyph glyph-name="degree" unicode="&#xb0;" horiz-adv-x="512" 
d="M104 548c0 42.667 14.667 78.667 44 108s65.333 44 108 44s78.667 -14.667 108 -44s44 -65.333 44 -108s-14.667 -78.667 -44 -108s-65.333 -44 -108 -44s-78.667 14.667 -108 44s-44 65.333 -44 108zM168 548c0 -26.667 8.33301 -48.667 25 -66s37.667 -26 63 -26
s46.333 8.66699 63 26s25 39.333 25 66s-8.33301 48.667 -25 66s-37.667 26 -63 26s-46.333 -8.66699 -63 -26s-25 -39.333 -25 -66z" />
    <glyph glyph-name="plusminus" unicode="&#xb1;" horiz-adv-x="522" 
d="M33 367v94h179v171h98v-171h179v-94h-179v-171h-98v171h-179zM33 62v94h456v-94h-456z" />
    <glyph glyph-name="mu" unicode="&#xb5;" horiz-adv-x="544" 
d="M164 -180h-102.001v622h102v-215c0 -39.333 6.33301 -71.333 19 -96c18.667 -35.333 48 -53 88 -53c36.667 0 65.667 18 87 54c14.667 25.333 22 59 22 101v209h102v-442h-102v77c-8.66699 -30.667 -24.167 -53.5 -46.5 -68.5s-44.166 -22.5 -65.499 -22.5
c-20 0 -39.833 6.5 -59.5 19.5s-34.5 31.167 -44.5 54.5v-240z" />
    <glyph glyph-name="mu" unicode="&#x3bc;" horiz-adv-x="544" 
d="M164 -180h-102.001v622h102v-215c0 -39.333 6.33301 -71.333 19 -96c18.667 -35.333 48 -53 88 -53c36.667 0 65.667 18 87 54c14.667 25.333 22 59 22 101v209h102v-442h-102v77c-8.66699 -30.667 -24.167 -53.5 -46.5 -68.5s-44.166 -22.5 -65.499 -22.5
c-20 0 -39.833 6.5 -59.5 19.5s-34.5 31.167 -44.5 54.5v-240z" />
    <glyph glyph-name="paragraph" unicode="&#xb6;" horiz-adv-x="642" 
d="M313 -102h-86v435h-14c-56.667 0 -102.334 16.5 -137.001 49.5s-52 76.5 -52 130.5c0 40.667 9.83301 76 29.5 106s47.834 51.667 84.501 65c30.667 10.667 70.667 16 120 16h312v-80h-69v-722h-86v722h-102v-722z" />
    <glyph glyph-name="periodcentered" unicode="&#xb7;" horiz-adv-x="233" 
d="M34 357c0 22.667 8 42 24 58s35.333 24 58 24s42 -8 58 -24s24 -35.333 24 -58c0 -20.667 -7.33301 -39.5 -22 -56.5s-34.667 -25.5 -60 -25.5s-45.333 8.5 -60 25.5s-22 35.833 -22 56.5z" />
    <glyph glyph-name="periodcentered" unicode="&#x2219;" horiz-adv-x="233" 
d="M34 357c0 22.667 8 42 24 58s35.333 24 58 24s42 -8 58 -24s24 -35.333 24 -58c0 -20.667 -7.33301 -39.5 -22 -56.5s-34.667 -25.5 -60 -25.5s-45.333 8.5 -60 25.5s-22 35.833 -22 56.5z" />
    <glyph glyph-name="guillemotright" unicode="&#xbb;" horiz-adv-x="530" 
d="M386 228l-136 178l68 48l172 -226l-172 -226l-68 48zM190 228l-136 178l68 48l172 -226l-172 -226l-68 48z" />
    <glyph glyph-name="afii10023" unicode="&#x401;" horiz-adv-x="518" 
d="M466 700v-100h-278v-168h270v-100h-270v-232h278v-100h-386v700h386zM104 834c0 18 6.5 33.5 19.5 46.5s28.5 19.5 46.5 19.5s33.5 -6.5 46.5 -19.5s19.5 -28.5 19.5 -46.5s-6.5 -33.5 -19.5 -46.5s-28.5 -19.5 -46.5 -19.5s-33.5 6.5 -46.5 19.5s-19.5 28.5 -19.5 46.5z
M312 834c0 18 6.5 33.5 19.5 46.5s28.5 19.5 46.5 19.5s33.5 -6.5 46.5 -19.5s19.5 -28.5 19.5 -46.5s-6.5 -33.5 -19.5 -46.5s-28.5 -19.5 -46.5 -19.5s-33.5 6.5 -46.5 19.5s-19.5 28.5 -19.5 46.5z" />
    <glyph glyph-name="afii10051" unicode="&#x402;" horiz-adv-x="730" 
d="M510 600l-231.999 0.000976562v-187c42.667 5.33301 87.667 8 135 8c71.333 0 127 -11 167 -33c68 -37.333 102 -100.333 102 -189c0 -64.667 -19.5 -116.334 -58.5 -155.001s-88.833 -58 -149.5 -58c-45.333 0 -90 10 -134 30l25 100c36 -20 72.667 -30 110 -30
c29.333 0 53.166 10 71.499 30s27.5 46.667 27.5 80c0 51.333 -20.667 87 -62 107c-25.333 12 -60 18 -104 18c-42 0 -85.333 -2.66699 -130 -8v-313h-108v600h-160v100h500v-100z" />
    <glyph glyph-name="afii10052" unicode="&#x403;" horiz-adv-x="444" 
d="M430 700v-100h-242v-600h-108v700h350zM236 762l-50 40l146 148l90 -62z" />
    <glyph glyph-name="afii10053" unicode="&#x404;" horiz-adv-x="646" 
d="M600 662l0.00195312 -126.001c-54 52 -117.333 78 -190 78c-80 0 -141.667 -24.667 -185 -74c-31.333 -35.333 -51.333 -79 -60 -131h341v-100h-344c3.33301 -56 24.333 -104.667 63 -146c47.333 -51.333 109.333 -77 186 -77c71.333 0 134.333 26.333 189 79v-126
c-55.333 -35.333 -119.333 -53 -192 -53c-96.667 0 -179.334 32.333 -248.001 97c-74.667 70.667 -112 159.334 -112 266.001c0 111.333 37.333 202.333 112 273c66 61.333 150.333 92 253 92c73.333 0 135.666 -17.333 186.999 -52z" />
    <glyph glyph-name="afii10054" unicode="&#x405;" horiz-adv-x="539" 
d="M471 595l-86.001 -50.001c-7.33301 17.333 -18 32 -32 44c-19.333 16.667 -43.666 25 -72.999 25c-28.667 0 -52.5 -7.33301 -71.5 -22s-28.5 -35 -28.5 -61c0 -37.333 25 -66 75 -86l70 -28c110.667 -43.333 166 -112.333 166 -207c0 -66 -21.333 -119.833 -64 -161.5
s-97 -62.5 -163 -62.5c-68.667 0 -123.667 23.667 -165 71c-33.333 38 -53 83.333 -59 136l106 23c1.33301 -34.667 11.333 -64.334 30 -89.001c20.667 -27.333 50.667 -41 90 -41c38 0 67 11.5 87 34.5s30 50.5 30 82.5c0 31.333 -9.33301 55.833 -28 73.5
s-43 32.834 -73 45.501l-67 29c-95.333 41.333 -143 100.333 -143 177c0 54.667 20 99.334 60 134.001s88.333 52 145 52c57.333 0 104 -16 140 -48c22 -19.333 40 -43 54 -71z" />
    <glyph glyph-name="afii10055" unicode="&#x406;" horiz-adv-x="268" 
d="M80 700h108v-700h-108v700z" />
    <glyph glyph-name="afii10056" unicode="&#x407;" horiz-adv-x="268" 
d="M80 700h108v-700h-108v700zM-3 834c0 16 5.66699 29.667 17 41s25 17 41 17s29.667 -5.66699 41 -17s17 -25 17 -41s-5.66699 -29.667 -17 -41s-25 -17 -41 -17s-29.667 5.66699 -41 17s-17 25 -17 41zM155 834c0 16 5.66699 29.667 17 41s25 17 41 17
s29.667 -5.66699 41 -17s17 -25 17 -41s-5.66699 -29.667 -17 -41s-25 -17 -41 -17s-29.667 5.66699 -41 17s-17 25 -17 41z" />
    <glyph glyph-name="afii10057" unicode="&#x408;" horiz-adv-x="376" 
d="M188 700l108 -0.00195312v-453c0 -71.333 -8.66699 -124.666 -26 -159.999c-16 -33.333 -38.5 -58.5 -67.5 -75.5s-61.167 -25.5 -96.5 -25.5c-46.667 0 -88 12 -124 36l52 90c20.667 -17.333 45 -26 73 -26c34 0 57.667 15.667 71 47
c6.66699 14.667 10 52.334 10 113.001v454z" />
    <glyph glyph-name="afii10058" unicode="&#x409;" horiz-adv-x="942" 
d="M490 0v600h-231v-349c0 -50.667 -4.33301 -93 -13 -127s-28 -63.333 -58 -88c-33.333 -28 -74.333 -42 -123 -42c-19.333 0 -36.333 2 -51 6v100c16 -4 27.667 -6 35 -6c28 0 50.333 7.66699 67 23c23.333 22 35 77.333 35 166v417h447v-282h78
c74.667 0 133.334 -18.667 176.001 -56c44 -38.667 66 -89.667 66 -153c0 -30.667 -6.83301 -61.667 -20.5 -93s-35.834 -57.333 -66.501 -78c-37.333 -25.333 -88.333 -38 -153 -38h-188zM598 318v-217.999h74c92 0 138 35.667 138 107c0 10.667 -1.33301 21.167 -4 31.5
s-8.16699 22.166 -16.5 35.499s-22.333 24 -42 32s-44.167 12 -73.5 12h-76z" />
    <glyph glyph-name="afii10059" unicode="&#x40a;" horiz-adv-x="938" 
d="M486 0v318h-298v-318h-108v700h108v-282h298v282h108v-282h78c74.667 0 133.334 -18.667 176.001 -56c44 -38.667 66 -89.667 66 -153c0 -30.667 -6.83301 -61.667 -20.5 -93s-35.834 -57.333 -66.501 -78c-37.333 -25.333 -88.333 -38 -153 -38h-188zM594 318v-217.999
h74c92 0 138 35.667 138 107c0 10.667 -1.33301 21.167 -4 31.5s-8.16699 22.166 -16.5 35.499s-22.333 24 -42 32s-44.167 12 -73.5 12h-76z" />
    <glyph glyph-name="afii10060" unicode="&#x40b;" horiz-adv-x="721" 
d="M511 600l-232 -0.00195312v-187c44 4.66699 89 7 135 7c82 0 141.333 -14.333 178 -43c46 -36 69 -92.667 69 -170v-207h-108v191c0 16 -0.333008 28.333 -1 37s-4 20.334 -10 35.001s-14.667 26.334 -26 35.001c-18.667 14.667 -56 22 -112 22
c-40 0 -81.667 -2.33301 -125 -7v-313h-108v600h-161v100h501v-100z" />
    <glyph glyph-name="afii10061" unicode="&#x40c;" horiz-adv-x="610" 
d="M188 700v-279l270 279h140l-316 -317l318 -383h-142l-270 336v-336h-108v700h108zM279 762l-50 40l146 148l90 -62z" />
    <glyph glyph-name="afii10062" unicode="&#x40e;" horiz-adv-x="598" 
d="M6 700h130l183 -363l161 363h112l-316 -700h-112l94 209zM135 873l84.0039 37c5.33301 -18.667 16.166 -33 32.499 -43s35.166 -15 56.499 -15s40.166 5 56.499 15s27.166 24.333 32.499 43l84 -37c-14 -32.667 -35.833 -58.667 -65.5 -78s-65.5 -29 -107.5 -29
s-77.833 9.66699 -107.5 29s-51.5 45.333 -65.5 78z" />
    <glyph glyph-name="afii10145" unicode="&#x40f;" horiz-adv-x="664" 
d="M80 0v700h108v-600h288v600h108v-700h-202v-190h-100v190h-202z" />
    <glyph glyph-name="afii10017" unicode="&#x410;" horiz-adv-x="688" 
d="M568 0l-74 170h-297l-77 -170h-116l348 740l332 -740h-116zM240 270h212l-104 236z" />
    <glyph glyph-name="afii10018" unicode="&#x411;" horiz-adv-x="546" 
d="M80 0l0.000976562 699.999h351v-100h-243v-182h68c75.333 0 134 -18.667 176 -56c44 -39.333 66 -90.666 66 -153.999c0 -30.667 -6.83301 -61.5 -20.5 -92.5s-35.834 -56.833 -66.501 -77.5c-37.333 -25.333 -88.333 -38 -153 -38h-178zM188.001 317.999v-217.999h64
c92 0 138 35.667 138 107c0 10.667 -1.33301 21.167 -4 31.5s-8.16699 22.166 -16.5 35.499s-22.333 24 -42 32s-44.167 12 -73.5 12h-66z" />
    <glyph glyph-name="afii10019" unicode="&#x412;" horiz-adv-x="546" 
d="M80 700l105.999 0.00390625c28 0 48.167 -0.333008 60.5 -1s29.833 -3.83398 52.5 -9.50098s42.667 -14.5 60 -26.5c52.667 -36.667 79 -89.334 79 -158.001c0 -53.333 -20.667 -96 -62 -128c40.667 -12.667 71.167 -34.834 91.5 -66.501s30.5 -65.834 30.5 -102.501
c0 -67.333 -23.333 -120.333 -70 -159c-18.667 -15.333 -41 -26.833 -67 -34.5s-46.167 -12 -60.5 -13s-34.166 -1.5 -59.499 -1.5h-161v700zM187.999 600.004v-201h32c76 0 114 34.333 114 103c0 65.333 -36.667 98 -110 98h-36zM187.999 311.004l0.000976562 -210.999h64
c51.333 0 87.166 10.5 107.499 31.5s30.5 45.833 30.5 74.5c0 29.333 -10.167 54.166 -30.5 74.499s-55.5 30.5 -105.5 30.5h-66z" />
    <glyph glyph-name="afii10020" unicode="&#x413;" horiz-adv-x="444" 
d="M430 700v-100h-242v-600h-108v700h350z" />
    <glyph glyph-name="afii10021" unicode="&#x414;" horiz-adv-x="680" 
d="M150 700l438.001 0.000976562v-600h78v-258h-100v158h-452v-158h-100v258c24 0.666992 45.667 9.5 65 26.5s34.666 39.833 45.999 68.5c16.667 43.333 25 104.666 25 183.999v321zM258.001 600.001v-222c0 -84.667 -8.33301 -149.667 -25 -195
c-12.667 -34 -31 -61.667 -55 -83h302v500h-222z" />
    <glyph glyph-name="afii10022" unicode="&#x415;" horiz-adv-x="518" 
d="M466 700v-100h-278v-168h270v-100h-270v-232h278v-100h-386v700h386z" />
    <glyph glyph-name="afii10024" unicode="&#x416;" horiz-adv-x="888" 
d="M498 700v-286l249 286h130l-288 -321l295 -379h-134l-252 330v-330h-108v330l-252 -330h-134l295 379l-288 321h130l249 -286v286h108z" />
    <glyph glyph-name="afii10025" unicode="&#x417;" horiz-adv-x="594" 
d="M149 543l-71.001 67.999c30.667 36 62.5 62.167 95.5 78.5s71.833 24.5 116.5 24.5c63.333 0 114.666 -16.667 153.999 -50c38.667 -32.667 58 -76.334 58 -131.001c0 -65.333 -28.667 -114.666 -86 -147.999c42.667 -11.333 75 -33 97 -65s33 -69.667 33 -113
c0 -76 -30.333 -134 -91 -174c-48 -31.333 -103 -47 -165 -47c-122 0 -210 56.333 -264 169l94 49c10 -25.333 23.333 -46.666 40 -63.999s34.5 -29.5 53.5 -36.5s34.833 -11.667 47.5 -14s25.334 -3.5 38.001 -3.5c35.333 0 65.333 7.66699 90 23
c32.667 20 49 50.333 49 91c0 80 -55 120 -165 120h-63v100h63c37.333 0 67.5 9.33301 90.5 28s34.5 44.334 34.5 77.001c0 25.333 -8 45.666 -24 60.999c-19.333 18.667 -47 28 -83 28c-59.333 0 -106.666 -23.667 -141.999 -71z" />
    <glyph glyph-name="afii10026" unicode="&#x418;" horiz-adv-x="740" 
d="M552 0v472l-472 -502v730h108v-472l472 502v-730h-108z" />
    <glyph glyph-name="afii10027" unicode="&#x419;" horiz-adv-x="740" 
d="M552 0v472l-472 -502v730h108v-472l472 502v-730h-108zM197 873l84.0039 37c5.33301 -18.667 16.166 -33 32.499 -43s35.166 -15 56.499 -15s40.166 5 56.499 15s27.166 24.333 32.499 43l84 -37c-14 -35.333 -37 -62 -69 -80s-66.667 -27 -104 -27s-72 9 -104 27
s-55 44.667 -69 80z" />
    <glyph glyph-name="afii10028" unicode="&#x41a;" horiz-adv-x="610" 
d="M188 700v-279l270 279h140l-316 -317l318 -383h-142l-270 336v-336h-108v700h108z" />
    <glyph glyph-name="afii10029" unicode="&#x41b;" horiz-adv-x="678" 
d="M151 700h447v-700h-108v600h-231v-349c0 -50.667 -4.33301 -93 -13 -127s-28 -63.333 -58 -88c-33.333 -28 -74.333 -42 -123 -42c-19.333 0 -36.333 2 -51 6v100c16 -4 27.667 -6 35 -6c28 0 50.333 7.66699 67 23c23.333 22 35 77.333 35 166v417z" />
    <glyph glyph-name="afii10030" unicode="&#x41c;" horiz-adv-x="888" 
d="M170 0h-110l147 752l243 -542l246 542l132 -752h-110l-70 422l-204 -454l-201 455z" />
    <glyph glyph-name="afii10031" unicode="&#x41d;" horiz-adv-x="674" 
d="M188 700v-274h298v274h108v-700h-108v326h-298v-326h-108v700h108z" />
    <glyph glyph-name="afii10032" unicode="&#x41e;" horiz-adv-x="824" 
d="M412 714c104 0 190.667 -35 260 -105s104 -156.667 104 -260c0 -102.667 -34.5 -188.834 -103.5 -258.501s-155.833 -104.5 -260.5 -104.5s-191.5 34.833 -260.5 104.5s-103.5 155.834 -103.5 258.501c0 103.333 34.667 190 104 260s156 105 260 105zM412 86
c74 0 134.5 24.5 181.5 73.5s70.5 112.167 70.5 189.5s-23.5 140.833 -70.5 190.5s-107.5 74.5 -181.5 74.5s-134.5 -24.833 -181.5 -74.5s-70.5 -113.167 -70.5 -190.5s23.5 -140.5 70.5 -189.5s107.5 -73.5 181.5 -73.5z" />
    <glyph glyph-name="afii10033" unicode="&#x41f;" horiz-adv-x="674" 
d="M80 700h514v-700h-108v600h-298v-600h-108v700z" />
    <glyph glyph-name="afii10034" unicode="&#x420;" horiz-adv-x="498" 
d="M80 700h154c63.333 0 114.333 -12.667 153 -38c58 -38 87 -94.667 87 -170c0 -63.333 -22.667 -114.333 -68 -153c-42.667 -36.667 -99.667 -55 -171 -55h-47v-284h-108v700zM188 600v-216h47c87.333 0 131 36.333 131 109c0 71.333 -44 107 -132 107h-46z" />
    <glyph glyph-name="afii10035" unicode="&#x421;" horiz-adv-x="646" 
d="M600 662l0.00195312 -126c-53.333 52 -116.333 78 -189 78c-75.333 0 -136 -25 -182 -75s-69 -114 -69 -192c0 -75.333 23.5 -137.666 70.5 -186.999s107.167 -74 180.5 -74c69.333 0 132.333 27 189 81v-128c-55.333 -35.333 -119.333 -53 -192 -53
c-96.667 0 -179.334 32.333 -248.001 97c-74.667 71.333 -112 159.333 -112 264c0 111.333 37.333 202.666 112 273.999c64.667 62 149 93 253 93c73.333 0 135.666 -17.333 186.999 -52z" />
    <glyph glyph-name="afii10036" unicode="&#x422;" horiz-adv-x="448" 
d="M438 600h-160v-600h-108v600h-160v100h428v-100z" />
    <glyph glyph-name="afii10037" unicode="&#x423;" horiz-adv-x="598" 
d="M6 700h130l183 -363l161 363h112l-316 -700h-112l94 209z" />
    <glyph glyph-name="afii10038" unicode="&#x424;" horiz-adv-x="862" 
d="M377 0l0.00390625 99h-18c-104 0 -181.833 25.333 -233.5 76s-77.5 116.334 -77.5 197.001c0 36.667 5.16699 69.834 15.5 99.501s23 53.667 38 72s33.5 34.333 55.5 48s42.167 23.667 60.5 30s38.666 11.333 60.999 15s38.666 5.83398 48.999 6.50098s20.833 1 31.5 1
h18v84h108v-84h18c10.667 0 21.167 -0.333008 31.5 -1s26.666 -2.83398 48.999 -6.50098s42.666 -8.66699 60.999 -15s38.5 -16.333 60.5 -30s40.5 -29.667 55.5 -48s27.667 -42.333 38 -72s15.5 -62.834 15.5 -99.501c0 -80.667 -25.833 -146.334 -77.5 -197.001
s-129.5 -76 -233.5 -76h-18v-99h-108zM377.004 199v345h-21c-66 0 -115.833 -16 -149.5 -48s-50.5 -73.333 -50.5 -124c0 -51.333 17 -93 51 -125s83.667 -48 149 -48h21zM485.004 544v-345h21c65.333 0 115 16 149 48s51 73.667 51 125c0 50.667 -16.833 92 -50.5 124
s-83.5 48 -149.5 48h-21z" />
    <glyph glyph-name="afii10039" unicode="&#x425;" horiz-adv-x="572" 
d="M10 0l220 365l-193 335h120l136 -237l140 237h120l-202 -335l211 -365h-120l-153 268l-159 -268h-120z" />
    <glyph glyph-name="afii10040" unicode="&#x426;" horiz-adv-x="688" 
d="M80 0v700h108v-600h288v600h108v-600h90v-258h-100v158h-494z" />
    <glyph glyph-name="afii10041" unicode="&#x427;" horiz-adv-x="630" 
d="M442 0v287c-64 -5.33301 -109 -8 -135 -8c-82 0 -141.333 14.667 -178 44c-46 36 -69 92.667 -69 170v207h108v-191c0 -53.333 12.333 -89.333 37 -108c18.667 -14.667 56.334 -22 113.001 -22c47.333 0 88.666 2.66699 123.999 8v313h108v-700h-108z" />
    <glyph glyph-name="afii10042" unicode="&#x428;" horiz-adv-x="976" 
d="M80 0v700h108v-600h246v600h108v-600h246v600h108v-700h-816z" />
    <glyph glyph-name="afii10043" unicode="&#x429;" horiz-adv-x="1000" 
d="M80 0v700h108v-600h246v600h108v-600h246v600h108v-600h90v-258h-100v158h-806z" />
    <glyph glyph-name="afii10044" unicode="&#x42a;" horiz-adv-x="620" 
d="M168 0l-0.000976562 600h-158v100h266v-282h78c74.667 0 133.334 -18.667 176.001 -56c44 -38.667 66 -89.667 66 -153c0 -30.667 -6.83301 -61.667 -20.5 -93s-35.834 -57.333 -66.501 -78c-37.333 -25.333 -88.666 -38 -153.999 -38h-187zM275.999 318v-217.999h74
c92 0 138 35.667 138 107c0 10.667 -1.33301 21.167 -4 31.5s-8.16699 22.166 -16.5 35.499s-22.333 24 -42 32s-44.167 12 -73.5 12h-76z" />
    <glyph glyph-name="afii10045" unicode="&#x42b;" horiz-adv-x="768" 
d="M80 0v700h108v-282h78c74.667 0 133.334 -18.667 176.001 -56c44 -38.667 66 -89.667 66 -153c0 -30.667 -6.83301 -61.667 -20.5 -93s-35.834 -57.333 -66.501 -78c-37.333 -25.333 -88.333 -38 -153 -38h-188zM188 318v-217.999h74c92 0 138 35.667 138 107
c0 10.667 -1.33301 21.167 -4 31.5s-8.16699 22.166 -16.5 35.499s-22.333 24 -42 32s-44.167 12 -73.5 12h-76zM580 700.001h108v-700h-108v700z" />
    <glyph glyph-name="afii10046" unicode="&#x42c;" horiz-adv-x="532" 
d="M80 0v700h108v-282h78c74.667 0 133.334 -18.667 176.001 -56c44 -38.667 66 -89.667 66 -153c0 -30.667 -6.83301 -61.667 -20.5 -93s-35.834 -57.333 -66.501 -78c-37.333 -25.333 -88.333 -38 -153 -38h-188zM188 318v-217.999h74c92 0 138 35.667 138 107
c0 10.667 -1.33301 21.167 -4 31.5s-8.16699 22.166 -16.5 35.499s-22.333 24 -42 32s-44.167 12 -73.5 12h-76z" />
    <glyph glyph-name="afii10047" unicode="&#x42d;" horiz-adv-x="648" 
d="M48 536l0.00195312 125.998c52 34.667 119.667 52 203 52c99.333 0 181 -30.667 245 -92c69.333 -67.333 104 -157.666 104 -270.999c0 -109.333 -34.667 -198.666 -104 -267.999c-64.667 -64.667 -147.334 -97 -248.001 -97c-75.333 0 -142 17.667 -200 53v126
c58.667 -52.667 122.667 -79 192 -79c80 0 143 24.667 189 74c38 41.333 58.333 91 61 149h-348v100h345c-8 54.667 -29.333 100.667 -64 138c-42.667 44.667 -101.334 67 -176.001 67c-72.667 0 -139 -26 -199 -78z" />
    <glyph glyph-name="afii10048" unicode="&#x42e;" horiz-adv-x="1044" 
d="M188 422l108 -0.000976562c10.667 72 40.667 134.333 90 187c65.333 70 150.666 105 255.999 105c102.667 0 187.334 -34.833 254.001 -104.5s100 -156.5 100 -260.5c0 -103.333 -33.5 -189.666 -100.5 -258.999s-151.5 -104 -253.5 -104c-116 0 -207.333 41 -274 123
c-48.667 60 -74 131 -76 213h-104v-322h-108v700h108v-278zM642 85.999c70.667 0 128.667 24.833 174 74.5s68 112.834 68 189.501s-22.667 139.834 -68 189.501s-103.333 74.5 -174 74.5s-128.667 -24.833 -174 -74.5s-68 -112.834 -68 -189.501
s22.667 -139.834 68 -189.501s103.333 -74.5 174 -74.5z" />
    <glyph glyph-name="afii10049" unicode="&#x42f;" horiz-adv-x="557" 
d="M20 0l207.999 291.999c-41.333 4.66699 -77.333 20.334 -108 47.001c-40 34 -60 83.667 -60 149c0 58 18 106.667 54 146c18.667 20 41 35.333 67 46s46.833 16.667 62.5 18s35.834 2 60.501 2h173v-700h-108v280h-25l-192 -280h-132zM368.999 599.999
l-52.999 0.000976562c-58.667 0 -98.334 -10.667 -119.001 -32c-19.333 -20.667 -29 -47.334 -29 -80.001c0 -37.333 12 -65.333 36 -84c20.667 -16 56 -24 106 -24h59v220z" />
    <glyph glyph-name="afii10065" unicode="&#x430;" horiz-adv-x="552" 
d="M388 442h102.001v-442h-102v46c-34 -40 -78.667 -60 -134 -60c-64.667 0 -116.5 23.333 -155.5 70s-58.5 101.667 -58.5 165s19.333 118 58 164s91 69 157 69c57.333 0 101.666 -21.333 132.999 -64v52zM270.001 362c-36.667 0 -66.5 -13.668 -89.5 -41.001
s-34.5 -61.333 -34.5 -102c0 -39.333 11.167 -72.666 33.5 -99.999s52.5 -41 90.5 -41s68.167 13.333 90.5 40s33.5 60.667 33.5 102c0 45.333 -12 80.333 -36 105s-53.333 37 -88 37z" />
    <glyph glyph-name="afii10066" unicode="&#x431;" horiz-adv-x="552" 
d="M397 735l105.001 0.00195312c-7.33301 -36 -23.333 -67 -48 -93s-55 -43.667 -91 -53l-71 -19c-18.667 -5.33301 -32.5 -9.5 -41.5 -12.5s-20.667 -9.16699 -35 -18.5s-26.5 -21 -36.5 -35c-22.667 -30.667 -34.667 -68.334 -36 -113.001h1
c14.667 20.667 36 36.334 64 47.001s56.667 16 86 16c63.333 0 115 -21.333 155 -64c42 -44 63 -99.667 63 -167c0 -68.667 -22.5 -125.334 -67.5 -170.001s-101.167 -67 -168.5 -67c-66.667 0 -120.667 19.667 -162 59c-49.333 46.667 -74 122.334 -74 227.001
c0 129.333 22 226.666 66 291.999c33.333 49.333 77.666 80.666 132.999 93.999l74 18c25.333 6 44.5 13.5 57.5 22.5s21.833 21.167 26.5 36.5zM276.001 78.002c35.333 0 65.833 11.833 91.5 35.5s38.5 58.834 38.5 105.501c0 48 -12.833 83.833 -38.5 107.5
s-56.167 35.5 -91.5 35.5s-65.833 -11.833 -91.5 -35.5s-38.5 -59.5 -38.5 -107.5c0 -46.667 12.833 -81.834 38.5 -105.501s56.167 -35.5 91.5 -35.5z" />
    <glyph glyph-name="afii10067" unicode="&#x432;" horiz-adv-x="458" 
d="M62 442h172.999c44.667 0 78.334 -8.66699 101.001 -26c26.667 -21.333 40 -49.666 40 -84.999c0 -40.667 -17.333 -69.334 -52 -86.001c24.667 -5.33301 44.667 -15.333 60 -30c22.667 -20.667 34 -49 34 -85c0 -42 -16 -75.667 -48 -101
c-25.333 -19.333 -59.333 -29 -102 -29h-206v442zM163.999 270h53c18 0 31.667 3 41 9c13.333 8.66699 20 20.667 20 36c0 14.667 -6 26 -18 34c-8.66699 6 -23.667 9 -45 9h-51v-88zM163.999 84h77c23.333 0 41.333 4.33301 54 13c14 10.667 21 23.667 21 39
c0 16 -6.66699 28.667 -20 38c-10.667 8 -28 12 -52 12h-80v-102z" />
    <glyph glyph-name="afii10068" unicode="&#x433;" horiz-adv-x="340" 
d="M62 0v442h270v-92h-168v-350h-102z" />
    <glyph glyph-name="afii10069" unicode="&#x434;" horiz-adv-x="510" 
d="M104 442l332 0.000976562v-350h66v-218h-94v126h-310v-126h-94v218c36.667 3.33301 64 22.666 82 57.999c12 24.667 18 63.667 18 117v175zM334 92.001v258h-132v-122c0 -64 -17.333 -109.333 -52 -136h184z" />
    <glyph glyph-name="afii10070" unicode="&#x435;" horiz-adv-x="506" 
d="M380 163l85.999 -47.999c-16.667 -30.667 -36 -55.667 -58 -75c-40.667 -36 -92 -54 -154 -54c-56.667 0 -106.5 20 -149.5 60s-64.5 97.333 -64.5 172c0 71.333 19.333 128.5 58 171.5s90.334 64.5 155.001 64.5c75.333 0 131.333 -27 168 -81
c27.333 -40.667 41 -94.334 41 -161.001v-16h-316c0.666992 -37.333 13.167 -66.333 37.5 -87s51.5 -31 81.5 -31c26 0 49.333 8 70 24c18.667 14 33.667 34.333 45 61zM151.999 280.001h205.001c-6 25.333 -18.167 45.333 -36.5 60s-40.166 22 -65.499 22
c-24.667 0 -46.334 -7.5 -65.001 -22.5s-31.334 -34.833 -38.001 -59.5z" />
    <glyph glyph-name="afii10072" unicode="&#x436;" horiz-adv-x="654" 
d="M276 442h102v-164l134 164h124l-172 -202l188 -240h-128l-146 196v-196h-102v196l-146 -196h-128l188 240l-172 202h124l134 -164v164z" />
    <glyph glyph-name="afii10073" unicode="&#x437;" horiz-adv-x="458" 
d="M131 328l-66 57.998c17.333 18.667 36.333 33.334 57 44.001c29.333 16 65 24 107 24c49.333 0 87 -10.333 113 -31c29.333 -23.333 44 -52.666 44 -87.999c0 -43.333 -20 -73.333 -60 -90c22 -4.66699 41 -14 57 -28c23.333 -20.667 35 -47 35 -79
c0 -49.333 -20.667 -88.333 -62 -117c-33.333 -23.333 -75.666 -35 -126.999 -35c-52.667 0 -96 12.333 -130 37c-23.333 16.667 -43 39.334 -59 68.001l82 42c8 -18.667 19.667 -33.334 35 -44.001c17.333 -12.667 40 -19 68 -19c27.333 0 48 5 62 15
c16.667 11.333 25 28 25 50c0 20 -6.66699 34.333 -20 43c-11.333 8 -31 12 -59 12h-53v84h46c20 0 34.667 3.33301 44 10c12 8 18 20.333 18 37c0 16 -6.33301 28.667 -19 38c-12 7.33301 -27 11 -45 11c-22.667 0 -42.334 -4.66699 -59.001 -14
c-12.667 -6.66699 -24 -16 -34 -28z" />
    <glyph glyph-name="afii10074" unicode="&#x438;" horiz-adv-x="530" 
d="M62 442h102v-251l304 291v-482h-102v257l-304 -291v476z" />
    <glyph glyph-name="afii10075" unicode="&#x439;" horiz-adv-x="530" 
d="M62 442h102v-251l304 291v-482h-102v257l-304 -291v476zM96 664l83.998 24c12.667 -45.333 41.334 -68 86.001 -68s73.334 22.667 86.001 68l84 -24c-10.667 -36 -32 -65.667 -64 -89s-67.333 -35 -106 -35s-74 11.667 -106 35s-53.333 53 -64 89z" />
    <glyph glyph-name="afii10076" unicode="&#x43a;" horiz-adv-x="460" 
d="M62 442h102v-162l149 162h134l-192 -193l203 -249h-130l-164 204v-204h-102v442z" />
    <glyph glyph-name="afii10077" unicode="&#x43b;" horiz-adv-x="490" 
d="M428 442v-441.999h-102v350h-132v-178c0 -54 -13.667 -96.333 -41 -127c-28 -31.333 -67.667 -47 -119 -47c-5.33301 0 -14 0.666992 -26 2v92c8 -1.33301 14.333 -2 19 -2c22.667 0 40.667 7.33301 54 22c10 11.333 15 30.666 15 57.999v272h332z" />
    <glyph glyph-name="afii10078" unicode="&#x43c;" horiz-adv-x="608" 
d="M14 0l107 482l183 -336l183 336l107 -482h-104l-45 222l-141 -256l-141 256l-45 -222h-104z" />
    <glyph glyph-name="afii10079" unicode="&#x43d;" horiz-adv-x="512" 
d="M62 0v442h102v-164h184v164h102v-442h-102v186h-184v-186h-102z" />
    <glyph glyph-name="afii10080" unicode="&#x43e;" horiz-adv-x="552" 
d="M276 454c67.333 0 123.5 -22.167 168.5 -66.5s67.5 -100.166 67.5 -167.499s-22.5 -123.166 -67.5 -167.499s-101.167 -66.5 -168.5 -66.5s-123.5 22.167 -168.5 66.5s-67.5 100.166 -67.5 167.499s22.5 123.166 67.5 167.499s101.167 66.5 168.5 66.5zM276 78
c35.333 0 65.833 11.833 91.5 35.5s38.5 58.834 38.5 105.501c0 48 -12.833 83.833 -38.5 107.5s-56.167 35.5 -91.5 35.5s-65.833 -11.833 -91.5 -35.5s-38.5 -59.5 -38.5 -107.5c0 -46.667 12.833 -81.834 38.5 -105.501s56.167 -35.5 91.5 -35.5z" />
    <glyph glyph-name="afii10081" unicode="&#x43f;" horiz-adv-x="508" 
d="M62 442h384v-442h-102v350h-180v-350h-102v442z" />
    <glyph glyph-name="afii10082" unicode="&#x440;" horiz-adv-x="552" 
d="M164 442v-47.999c33.333 40 78 60 134 60c59.333 0 109.833 -21.333 151.5 -64s62.5 -98.667 62.5 -168s-21.667 -126 -65 -170s-92.666 -66 -147.999 -66c-11.333 0 -23.333 1.33301 -36 4s-28.834 9.16699 -48.501 19.5s-36.5 24.166 -50.5 41.499v-261h-102v652h102z
M283 362.001c-34 0 -63.333 -12.667 -88 -38s-37 -60.333 -37 -105c0 -40 11 -73.5 33 -100.5s52.667 -40.5 92 -40.5c37.333 0 67.166 13.667 89.499 41s33.5 61.333 33.5 102c0 44 -12.167 78.5 -36.5 103.5s-53.166 37.5 -86.499 37.5z" />
    <glyph glyph-name="afii10083" unicode="&#x441;" horiz-adv-x="438" 
d="M406 422l-0.000976562 -134c-14 22.667 -32.5 40.667 -55.5 54s-47.167 20 -72.5 20c-35.333 0 -66.166 -12.667 -92.499 -38s-39.5 -60 -39.5 -104c0 -40 11.833 -73.667 35.5 -101s55.5 -41 95.5 -41c52.667 0 95.667 25 129 75v-134c-38 -22 -78.667 -33 -122 -33
c-76 0 -136.333 22.667 -181 68c-42 42 -63 96.667 -63 164c0 72 24 130.667 72 176c42.667 40 98 60 166 60c50 0 92.667 -10.667 128 -32z" />
    <glyph glyph-name="afii10084" unicode="&#x442;" horiz-adv-x="378" 
d="M138 0v350h-130v92h362v-92h-130v-350h-102z" />
    <glyph glyph-name="afii10085" unicode="&#x443;" horiz-adv-x="506" 
d="M49 -210l154 292l-197 360h124l130 -249l124 249h116l-335 -652h-116z" />
    <glyph glyph-name="afii10086" unicode="&#x444;" horiz-adv-x="698" 
d="M298 -210l0.00195312 203c-74.667 -1.33301 -135.334 17.667 -182.001 57c-49.333 41.333 -74 98.333 -74 171c0 71.333 24.333 128 73 170c45.333 38.667 106.333 58 183 58v251h102v-251c76.667 0 137.667 -19.333 183 -58c48.667 -42 73 -98.667 73 -170
c0 -72.667 -24.667 -129.667 -74 -171c-46.667 -39.333 -107.334 -58.333 -182.001 -57v-203h-102zM298.002 85v272.001c-40 0 -71.667 -7.66699 -95 -23c-36.667 -23.333 -55 -61 -55 -113c0 -48 17.333 -84.667 52 -110c27.333 -18.667 60 -27.334 98 -26.001z
M400.002 357.001v-272.001c38 -1.33301 70.667 7.33398 98 26.001c34.667 25.333 52 62 52 110c0 52 -18.333 89.667 -55 113c-23.333 15.333 -55 23 -95 23z" />
    <glyph glyph-name="afii10087" unicode="&#x445;" horiz-adv-x="520" 
d="M263 165l-131 -165h-126l195 239l-157 203h122l97 -129l99 129h126l-163 -203l189 -239h-124z" />
    <glyph glyph-name="afii10088" unicode="&#x446;" horiz-adv-x="524" 
d="M62 0v442h102v-350h176v350h102v-350h74v-218h-94v126h-360z" />
    <glyph glyph-name="afii10089" unicode="&#x447;" horiz-adv-x="466" 
d="M302 0v171c-32.667 -6 -63 -9 -91 -9c-50 0 -88.667 10.667 -116 32c-28.667 22.667 -43 58 -43 106v142h102v-121c0 -30.667 9 -51 27 -61c12 -6.66699 29 -10 51 -10c24.667 0 48 3.66699 70 11v181h102v-442h-102z" />
    <glyph glyph-name="afii10090" unicode="&#x448;" horiz-adv-x="726" 
d="M62 0v442h102v-350h148v350h102v-350h148v350h102v-442h-602z" />
    <glyph glyph-name="afii10091" unicode="&#x449;" horiz-adv-x="746" 
d="M62 0v442h102v-350h148v350h102v-350h148v350h102v-350h74v-218h-94v126h-582z" />
    <glyph glyph-name="afii10092" unicode="&#x44a;" horiz-adv-x="456" 
d="M8 442h196.002v-157h60c19.333 0 34.666 -0.5 45.999 -1.5s25.666 -5 42.999 -12s32.333 -17.5 45 -31.5c22.667 -24.667 34 -56.667 34 -96c0 -44.667 -13.333 -80 -40 -106c-12.667 -12 -26.834 -21 -42.501 -27s-28.667 -9.33301 -39 -10s-26.166 -1 -47.499 -1h-161
v350h-94v92zM204.002 88h46c24.667 0 42.334 3.33301 53.001 10c15.333 9.33301 23 24.333 23 45c0 19.333 -7.33301 34 -22 44c-10.667 6.66699 -28.334 10 -53.001 10h-47v-109z" />
    <glyph glyph-name="afii10093" unicode="&#x44b;" horiz-adv-x="602" 
d="M62 442l102.001 0.000976562v-157h60c18.667 0 33.667 -0.5 45 -1.5s26.166 -5 44.499 -12s33.5 -17.5 45.5 -31.5c22 -24.667 33 -56.667 33 -96c0 -46.667 -13.333 -82.334 -40 -107.001c-12 -11.333 -26 -20 -42 -26s-29.5 -9.33301 -40.5 -10s-26.5 -1 -46.5 -1h-161
v442zM164.001 88.001h46c24.667 0 42.334 3.33301 53.001 10c15.333 9.33301 23 24.333 23 45c0 19.333 -7.33301 34 -22 44c-10.667 6.66699 -28.334 10 -53.001 10h-47v-109zM438.001 442.001h102v-442h-102v442z" />
    <glyph glyph-name="afii10094" unicode="&#x44c;" horiz-adv-x="416" 
d="M62 442l102.001 0.000976562v-157h60c18.667 0 33.667 -0.5 45 -1.5s26.166 -5 44.499 -12s33.5 -17.5 45.5 -31.5c22 -24.667 33 -56.667 33 -96c0 -46.667 -13.333 -82.334 -40 -107.001c-12 -11.333 -26 -20 -42 -26s-29.5 -9.33301 -40.5 -10s-26.5 -1 -46.5 -1h-161
v442zM164.001 88.001h46c24.667 0 42.334 3.33301 53.001 10c15.333 9.33301 23 24.333 23 45c0 19.333 -7.33301 34 -22 44c-10.667 6.66699 -28.334 10 -53.001 10h-47v-109z" />
    <glyph glyph-name="afii10095" unicode="&#x44d;" horiz-adv-x="446" 
d="M40 333l-0.000976562 98.001c37.333 15.333 77.333 23 120 23c76.667 0 136.834 -21.833 180.501 -65.5s65.5 -100.5 65.5 -170.5c0 -67.333 -21.833 -122.833 -65.5 -166.5s-99.834 -65.5 -168.501 -65.5c-51.333 0 -95.333 8.66699 -132 26v98
c36 -20.667 77.333 -31 124 -31c32 0 60.333 9 85 27s39.667 43.667 45 77h-205v92h201c-6.66699 27.333 -22.167 48.666 -46.5 63.999s-51.166 23 -80.499 23c-42 0 -83 -9.66699 -123 -29z" />
    <glyph glyph-name="afii10096" unicode="&#x44e;" horiz-adv-x="730" 
d="M164 278l71.001 -0.000976562c8.66699 42 28 78.667 58 110c44 44 99 66 165 66c67.333 0 122.833 -22.167 166.5 -66.5s65.5 -100.166 65.5 -167.499c0 -68 -22 -124 -66 -168s-99.333 -66 -166 -66c-70.667 0 -127.334 23.667 -170.001 71
c-32 36.667 -50 79.667 -54 129h-70v-186h-102v442h102v-164zM457.001 77.999c35.333 0 65.333 11.667 90 35s37 58.666 37 105.999c0 48 -12.333 83.833 -37 107.5s-54.667 35.5 -90 35.5c-36 0 -66.167 -11.833 -90.5 -35.5s-36.5 -59.5 -36.5 -107.5
c0 -47.333 12.333 -82.666 37 -105.999s54.667 -35 90 -35z" />
    <glyph glyph-name="afii10097" unicode="&#x44f;" horiz-adv-x="436" 
d="M8 0l139 175c-26.667 3.33301 -50 14 -70 32c-24.667 23.333 -37 54.333 -37 93c0 42.667 13.333 76.667 40 102c28 26.667 71 40 129 40h165v-442h-102v163h-23l-121 -163h-120zM272 247v106.999h-63c-24.667 0 -42.667 -3.33301 -54 -10
c-15.333 -10 -23 -24.667 -23 -44s7 -33.666 21 -42.999c10.667 -6.66699 29.667 -10 57 -10h62z" />
    <glyph glyph-name="afii10071" unicode="&#x451;" horiz-adv-x="506" 
d="M380 163l85.999 -47.999c-16.667 -30.667 -36 -55.667 -58 -75c-40.667 -36 -92 -54 -154 -54c-56.667 0 -106.5 20 -149.5 60s-64.5 97.333 -64.5 172c0 71.333 19.333 128.5 58 171.5s90.334 64.5 155.001 64.5c75.333 0 131.333 -27 168 -81
c27.333 -40.667 41 -94.334 41 -161.001v-16h-316c0.666992 -37.333 13.167 -66.333 37.5 -87s51.5 -31 81.5 -31c26 0 49.333 8 70 24c18.667 14 33.667 34.333 45 61zM151.999 280.001h205.001c-6 25.333 -18.167 45.333 -36.5 60s-40.166 22 -65.499 22
c-24.667 0 -46.334 -7.5 -65.001 -22.5s-31.334 -34.833 -38.001 -59.5zM104 624.001c0 18 6.5 33.5 19.5 46.5s28.5 19.5 46.5 19.5s33.5 -6.5 46.5 -19.5s19.5 -28.5 19.5 -46.5s-6.5 -33.5 -19.5 -46.5s-28.5 -19.5 -46.5 -19.5s-33.5 6.5 -46.5 19.5
s-19.5 28.5 -19.5 46.5zM292 624.001c0 18 6.5 33.5 19.5 46.5s28.5 19.5 46.5 19.5s33.5 -6.5 46.5 -19.5s19.5 -28.5 19.5 -46.5s-6.5 -33.5 -19.5 -46.5s-28.5 -19.5 -46.5 -19.5s-33.5 6.5 -46.5 19.5s-19.5 28.5 -19.5 46.5z" />
    <glyph glyph-name="afii10099" unicode="&#x452;" horiz-adv-x="504" 
d="M62 0l-0.000976562 564.001h-76v80h76v91h102v-91h210v-80h-210v-160c30.667 33.333 70.334 50 119.001 50c60.667 0 104.334 -20 131.001 -60c18.667 -27.333 28 -68.333 28 -123v-343c0 -58.667 -15.333 -99.667 -46 -123c-24.667 -19.333 -57 -29 -97 -29
c-22 0 -44.333 3.33301 -67 10v88c13.333 -6.66699 28.666 -10 45.999 -10c24 0 41 7.66699 51 23c7.33301 13.333 11 34.333 11 63v311c0 14 -0.166992 23.833 -0.5 29.5s-2 13.167 -5 22.5s-7.83301 17.666 -14.5 24.999c-13.333 16 -33 24 -59 24
c-34 0 -59.333 -12.667 -76 -38c-14 -20.667 -21 -57.667 -21 -111v-213h-102z" />
    <glyph glyph-name="afii10100" unicode="&#x453;" horiz-adv-x="340" 
d="M62 0v442h270v-92h-168v-350h-102zM272 708l94 -48l-164 -152l-56 36z" />
    <glyph glyph-name="afii10101" unicode="&#x454;" horiz-adv-x="446" 
d="M406 425l0.000976562 -109c-34.667 30.667 -75 46 -121 46c-30.667 0 -58.167 -7.66699 -82.5 -23s-39.833 -36.666 -46.5 -63.999h201v-94h-204c4 -33.333 18.5 -58.833 43.5 -76.5s54.5 -26.5 88.5 -26.5c46.667 0 87 16 121 48v-108
c-32.667 -21.333 -74.667 -32 -126 -32c-74 0 -133 22.667 -177 68c-42 42 -63 97 -63 165c0 71.333 24 129.666 72 174.999c43.333 40 99.666 60 168.999 60c48 0 89.667 -9.66699 125 -29z" />
    <glyph glyph-name="afii10102" unicode="&#x455;" horiz-adv-x="374" 
d="M320 367l-85 -44.999c-8.66699 26.667 -25 40 -49 40c-22.667 0 -34 -9.66699 -34 -29c0 -8 2.5 -15 7.5 -21s11 -11 18 -15s18.167 -9.66699 33.5 -17c38.667 -16.667 66.667 -31.667 84 -45c35.333 -26 53 -59 53 -99c0 -46.667 -16.667 -83.334 -50 -110.001
s-70.333 -40 -111 -40c-32.667 0 -63.167 9.33301 -91.5 28s-48.833 46 -61.5 82l86 39c12 -38 36.333 -57 73 -57c16 0 28.167 4.33301 36.5 13s12.5 20.334 12.5 35.001c0 12.667 -3.33301 23 -10 31s-18.667 16.333 -36 25c-4 2 -17.167 8.16699 -39.5 18.5
s-38.5 18.5 -48.5 24.5c-18 11.333 -31.167 24.333 -39.5 39s-12.5 34 -12.5 58c0 37.333 12 68.666 36 93.999s58 38 102 38c59.333 0 101.333 -29 126 -87z" />
    <glyph glyph-name="afii10103" unicode="&#x456;" horiz-adv-x="226" 
d="M62 442h102v-442h-102v442zM47 624c0 18 6.5 33.5 19.5 46.5s28.5 19.5 46.5 19.5s33.5 -6.5 46.5 -19.5s19.5 -28.5 19.5 -46.5s-6.5 -33.5 -19.5 -46.5s-28.5 -19.5 -46.5 -19.5s-33.5 6.5 -46.5 19.5s-19.5 28.5 -19.5 46.5z" />
    <glyph glyph-name="afii10104" unicode="&#x457;" horiz-adv-x="252" 
d="M75 442h102v-442h-102v442zM10 608c0 14.667 4.66699 26.667 14 36s21.333 14 36 14s26.667 -4.66699 36 -14s14 -21.333 14 -36s-4.66699 -26.667 -14 -36s-21.333 -14 -36 -14s-26.667 4.66699 -36 14s-14 21.333 -14 36zM142 608c0 14.667 4.66699 26.667 14 36
s21.333 14 36 14s26.667 -4.66699 36 -14s14 -21.333 14 -36s-4.66699 -26.667 -14 -36s-21.333 -14 -36 -14s-26.667 4.66699 -36 14s-14 21.333 -14 36z" />
    <glyph glyph-name="afii10105" unicode="&#x458;" horiz-adv-x="226" 
d="M62 442h102v-652h-102v652zM47 624c0 18 6.5 33.5 19.5 46.5s28.5 19.5 46.5 19.5s33.5 -6.5 46.5 -19.5s19.5 -28.5 19.5 -46.5s-6.5 -33.5 -19.5 -46.5s-28.5 -19.5 -46.5 -19.5s-33.5 6.5 -46.5 19.5s-19.5 28.5 -19.5 46.5z" />
    <glyph glyph-name="afii10106" unicode="&#x459;" horiz-adv-x="680" 
d="M428 442l0.000976562 -156.998h60c18.667 0 33.667 -0.5 45 -1.5s26.166 -5 44.499 -12s33.5 -17.5 45.5 -31.5c22 -24.667 33 -56.667 33 -96c0 -46.667 -13.333 -82.334 -40 -107.001c-12 -11.333 -26 -20 -42 -26s-29.5 -9.33301 -40.5 -10s-26.5 -1 -46.5 -1h-161
v350h-132v-178c0 -54 -13.667 -96.333 -41 -127c-28 -31.333 -67.667 -47 -119 -47c-5.33301 0 -14 0.666992 -26 2v92c8 -1.33301 14.333 -2 19 -2c22.667 0 40.667 7.33301 54 22c10 11.333 15 30.666 15 57.999v272h332zM428.001 88.002h46
c24.667 0 42.334 3.33301 53.001 10c15.333 9.33301 23 24.333 23 45c0 19.333 -7.33301 34 -22 44c-10.667 6.66699 -28.334 10 -53.001 10h-47v-109z" />
    <glyph glyph-name="afii10107" unicode="&#x45a;" horiz-adv-x="702" 
d="M62 0l0.000976562 442.001h102v-157h184v157h102v-157h60c18.667 0 33.667 -0.5 45 -1.5s26.166 -5 44.499 -12s33.5 -17.5 45.5 -31.5c22 -24.667 33 -56.667 33 -96c0 -46.667 -13.333 -82.334 -40 -107.001c-12 -11.333 -26 -20 -42 -26s-29.5 -9.33301 -40.5 -10
s-26.5 -1 -46.5 -1h-161v197h-184v-197h-102zM450.001 88.001h46c24.667 0 42.334 3.33301 53.001 10c15.333 9.33301 23 24.333 23 45c0 19.333 -7.33301 34 -22 44c-10.667 6.66699 -28.334 10 -53.001 10h-47v-109z" />
    <glyph glyph-name="afii10108" unicode="&#x45b;" horiz-adv-x="504" 
d="M62 0l-0.00195312 564.001h-76v80h76v91h102v-91h210v-80h-210v-160c30.667 33.333 70.334 50 119.001 50c60.667 0 104.334 -20 131.001 -60c18.667 -27.333 28 -68.333 28 -123v-271h-102v261c0 14 -0.166992 23.833 -0.5 29.5s-2 13.167 -5 22.5
s-7.83301 17.666 -14.5 24.999c-13.333 16 -33 24 -59 24c-34 0 -59.333 -12.667 -76 -38c-14 -20.667 -21 -57.667 -21 -111v-213h-102z" />
    <glyph glyph-name="afii10109" unicode="&#x45c;" horiz-adv-x="460" 
d="M62 442h102v-162l149 162h134l-192 -193l203 -249h-130l-164 204v-204h-102v442zM303 708l94 -48l-164 -152l-56 36z" />
    <glyph glyph-name="afii10110" unicode="&#x45e;" horiz-adv-x="506" 
d="M49 -210l154 292l-197 360h124l130 -249l124 249h116l-335 -652h-116zM342 688l83.998 -24c-10.667 -36 -32 -65.667 -64 -89s-67.333 -35 -106 -35s-74 11.667 -106 35s-53.333 53 -64 89l84 24c12.667 -45.333 41.334 -68 86.001 -68s73.334 22.667 86.001 68z" />
    <glyph glyph-name="afii10193" unicode="&#x45f;" horiz-adv-x="504" 
d="M62 0v442h102v-350h176v350h102v-442h-143v-150h-94v150h-143z" />
    <glyph glyph-name="afii10050" unicode="&#x490;" horiz-adv-x="444" 
d="M80 700h250v158h100v-258h-242v-600h-108v700z" />
    <glyph glyph-name="afii10098" unicode="&#x491;" horiz-adv-x="340" 
d="M62 0v442h176v126h94v-218h-168v-350h-102z" />
    <glyph glyph-name="endash" unicode="&#x2013;" horiz-adv-x="604" 
d="M50 176v92h504v-92h-504z" />
    <glyph glyph-name="emdash" unicode="&#x2014;" horiz-adv-x="834" 
d="M50 176v92h734v-92h-734z" />
    <glyph glyph-name="quoteleft" unicode="&#x2018;" horiz-adv-x="300" 
d="M250 700l-106 -264l-94 34l130 260z" />
    <glyph glyph-name="quoteright" unicode="&#x2019;" horiz-adv-x="350" 
d="M50 466l106 264l94 -34l-130 -260z" />
    <glyph glyph-name="quotesinglbase" unicode="&#x201a;" horiz-adv-x="350" 
d="M50 -134l106 264l94 -34l-130 -260z" />
    <glyph glyph-name="quotedblleft" unicode="&#x201c;" horiz-adv-x="480" 
d="M430 700l-108 -264l-90 34l130 260zM248 700l-108 -264l-90 34l130 260z" />
    <glyph glyph-name="quotedblright" unicode="&#x201d;" horiz-adv-x="530" 
d="M50 466l108 264l90 -34l-130 -260zM232 466l108 264l90 -34l-130 -260z" />
    <glyph glyph-name="quotedblbase" unicode="&#x201e;" horiz-adv-x="530" 
d="M50 -134l108 264l90 -34l-130 -260zM232 -134l108 264l90 -34l-130 -260z" />
    <glyph glyph-name="dagger" unicode="&#x2020;" horiz-adv-x="586" 
d="M242 572v163h102v-163h146v-96h-146v-686h-102v686h-146v96h146z" />
    <glyph glyph-name="daggerdbl" unicode="&#x2021;" horiz-adv-x="586" 
d="M242 572v163h102v-163h146v-96h-146v-276h146v-96h-146v-314h-102v314h-146v96h146v276h-146v96h146z" />
    <glyph glyph-name="bullet" unicode="&#x2022;" horiz-adv-x="680" 
d="M194 357c0 40 14.333 74.333 43 103s63 43 103 43s74.333 -14.333 103 -43s43 -63 43 -103s-14.333 -74.333 -43 -103s-63 -43 -103 -43s-74.333 14.333 -103 43s-43 63 -43 103z" />
    <glyph glyph-name="ellipsis" unicode="&#x2026;" horiz-adv-x="780" 
d="M64 52c0 18 6.5 33.5 19.5 46.5s28.5 19.5 46.5 19.5s33.5 -6.5 46.5 -19.5s19.5 -28.5 19.5 -46.5s-6.5 -33.5 -19.5 -46.5s-28.5 -19.5 -46.5 -19.5s-33.5 6.5 -46.5 19.5s-19.5 28.5 -19.5 46.5zM324 52c0 18 6.5 33.5 19.5 46.5s28.5 19.5 46.5 19.5
s33.5 -6.5 46.5 -19.5s19.5 -28.5 19.5 -46.5s-6.5 -33.5 -19.5 -46.5s-28.5 -19.5 -46.5 -19.5s-33.5 6.5 -46.5 19.5s-19.5 28.5 -19.5 46.5zM584 52c0 18 6.5 33.5 19.5 46.5s28.5 19.5 46.5 19.5s33.5 -6.5 46.5 -19.5s19.5 -28.5 19.5 -46.5s-6.5 -33.5 -19.5 -46.5
s-28.5 -19.5 -46.5 -19.5s-33.5 6.5 -46.5 19.5s-19.5 28.5 -19.5 46.5z" />
    <glyph glyph-name="perthousand" unicode="&#x2030;" horiz-adv-x="1256" 
d="M198 19l400 693l50 -31l-400 -693zM202 378c-41.333 0 -79.833 14.833 -115.5 44.5s-53.5 69.5 -53.5 119.5s17.833 89.833 53.5 119.5s74.167 44.5 115.5 44.5c46 0 85.667 -16.167 119 -48.5s50 -70.833 50 -115.5s-16.667 -83.167 -50 -115.5s-73 -48.5 -119 -48.5z
M202 632c-26.667 0 -47.834 -9.66797 -63.501 -29.001s-23.5 -39.666 -23.5 -60.999c0 -22 7.83301 -42.5 23.5 -61.5s36.834 -28.5 63.501 -28.5c26 0 47 9.5 63 28.5s24 39.5 24 61.5s-8 42.5 -24 61.5s-37 28.5 -63 28.5zM644 -6.00098
c-41.333 0 -79.833 14.833 -115.5 44.5s-53.5 69.5 -53.5 119.5s17.833 89.833 53.5 119.5s74.167 44.5 115.5 44.5c46 0 85.667 -16.167 119 -48.5s50 -70.833 50 -115.5s-16.667 -83.167 -50 -115.5s-73 -48.5 -119 -48.5zM644 247.999
c-26.667 0 -47.834 -9.66797 -63.501 -29.001s-23.5 -39.666 -23.5 -60.999c0 -22 7.83301 -42.5 23.5 -61.5s36.834 -28.5 63.501 -28.5c26 0 47 9.5 63 28.5s24 39.5 24 61.5s-8 42.5 -24 61.5s-37 28.5 -63 28.5zM1054 -6.00195c-41.333 0 -79.833 14.833 -115.5 44.5
s-53.5 69.5 -53.5 119.5s17.833 89.833 53.5 119.5s74.167 44.5 115.5 44.5c46 0 85.667 -16.167 119 -48.5s50 -70.833 50 -115.5s-16.667 -83.167 -50 -115.5s-73 -48.5 -119 -48.5zM1054 247.998c-26.667 0 -47.834 -9.66797 -63.501 -29.001
s-23.5 -39.666 -23.5 -60.999c0 -22 7.83301 -42.5 23.5 -61.5s36.834 -28.5 63.501 -28.5c26 0 47 9.5 63 28.5s24 39.5 24 61.5s-8 42.5 -24 61.5s-37 28.5 -63 28.5z" />
    <glyph glyph-name="guilsinglleft" unicode="&#x2039;" horiz-adv-x="336" 
d="M146 228l136 -176l-70 -50l-172 226l172 226l70 -50z" />
    <glyph glyph-name="guilsinglright" unicode="&#x203a;" horiz-adv-x="336" 
d="M190 228l-136 176l70 50l172 -226l-172 -226l-70 50z" />
    <glyph glyph-name="Euro" unicode="&#x20ac;" 
d="M545 670l-0.000976562 -106c-38.667 36 -91.334 54 -158.001 54c-51.333 0 -92 -13.5 -122 -40.5s-49 -63.833 -57 -110.5h298l-29 -82h-281c0 -2 -0.166992 -6.5 -0.5 -13.5s-0.5 -12.833 -0.5 -17.5c0 -4 0.166992 -10.167 0.5 -18.5s0.5 -13.833 0.5 -16.5h256
l-29 -81h-215c8.66699 -49.333 28.167 -87.5 58.5 -114.5s70.833 -40.5 121.5 -40.5c65.333 0 117.666 17.667 156.999 53v-107c-36 -28 -92.667 -42 -170 -42c-74.667 0 -135.167 20.833 -181.5 62.5s-76.166 104.5 -89.499 188.5h-81l29 81h44
c-1.33301 12 -2 23.667 -2 35c0 4.66699 0.166992 10.5 0.5 17.5s0.5 11.5 0.5 13.5h-72l29 82h51c13.333 76 42.333 136.167 87 180.5s106.334 66.5 185.001 66.5c36.667 0 70.334 -4.5 101.001 -13.5s53.667 -19.167 69 -30.5z" />
    <glyph glyph-name="afii61352" unicode="&#x2116;" horiz-adv-x="1106" 
d="M188 0h-108v746l465 -506v460h108v-742l-465 506v-464zM895 370c-46 0 -85.667 16.502 -119 49.502s-50 71.5 -50 115.5c0 45.333 16.667 84.166 50 116.499s73 48.5 119 48.5s85.667 -16.333 119 -49s50 -71.334 50 -116.001c0 -44 -16.5 -82.5 -49.5 -115.5
s-72.833 -49.5 -119.5 -49.5zM895 624.002c-26.667 0 -47.834 -9 -63.501 -27s-23.5 -38.667 -23.5 -62s7.83301 -44 23.5 -62s36.834 -27 63.501 -27c27.333 0 48.666 9 63.999 27s23 38.667 23 62s-7.66699 44 -23 62s-36.666 27 -63.999 27zM747 213.002v84h296v-84h-296
z" />
    <glyph glyph-name="trademark" unicode="&#x2122;" horiz-adv-x="744" 
d="M250 632h-88v-332h-74v332h-88v68h250v-68zM348 300h-75l86 436l132 -294l134 294l85 -436h-75l-37 218l-107 -224l-107 224z" />
    <glyph glyph-name=".null" horiz-adv-x="0" 
 />
    <glyph glyph-name="nonmarkingreturn" horiz-adv-x="333" 
 />
    <glyph glyph-name="hyphenminus" horiz-adv-x="332" 
d="M40 170v106h252v-106h-252z" />
    <glyph glyph-name="accent" horiz-adv-x="2" 
d="M-190 708l94 -48l-164 -152l-56 36z" />
    <glyph glyph-name="Accent" horiz-adv-x="2" 
d="M-362 762l-50 40l146 148l90 -62z" />
    </font>
</defs>
</svg>
