<?xml version="1.0" encoding="UTF-8" standalone="no"?>
<svg
   width="442"
   height="269"
   viewBox="0 0 442 269"
   fill="none"
   version="1.1"
   id="svg7"
   sodipodi:docname="1.svg"
   inkscape:version="1.4 (86a8ad7, 2024-10-11)"
   xmlns:inkscape="http://www.inkscape.org/namespaces/inkscape"
   xmlns:sodipodi="http://sodipodi.sourceforge.net/DTD/sodipodi-0.dtd"
   xmlns="http://www.w3.org/2000/svg"
   xmlns:svg="http://www.w3.org/2000/svg">
  <sodipodi:namedview
     id="namedview7"
     pagecolor="#ffffff"
     bordercolor="#000000"
     borderopacity="0.25"
     inkscape:showpageshadow="2"
     inkscape:pageopacity="0.0"
     inkscape:pagecheckerboard="0"
     inkscape:deskcolor="#d1d1d1"
     inkscape:zoom="1.5"
     inkscape:cx="135"
     inkscape:cy="118.33333"
     inkscape:window-width="1920"
     inkscape:window-height="1009"
     inkscape:window-x="-8"
     inkscape:window-y="-8"
     inkscape:window-maximized="1"
     inkscape:current-layer="svg7" />
  <path
     d="M391.349 66.1997C392.887 63.9064 395.381 63.9064 396.919 66.1997L440.393 131.018C441.931 133.312 441.931 137.03 440.393 139.323L396.919 204.142C395.381 206.435 392.887 206.435 391.349 204.142L347.874 139.323C346.336 137.03 346.336 133.312 347.874 131.018L391.349 66.1997Z"
     fill="#969AF7"
     id="path3" />
  <path
     d="M391.349 66.1997C392.887 63.9064 395.381 63.9064 396.919 66.1997L440.393 131.018C441.931 133.312 441.931 137.03 440.393 139.323L396.919 204.142C395.381 206.435 392.887 206.435 391.349 204.142L347.874 139.323C346.336 137.03 346.336 133.312 347.874 131.018L391.349 66.1997Z"
     fill="url(#paint1_linear_13_333)"
     id="path4" />
  <defs
     id="defs7">
    <linearGradient
       id="paint0_linear_13_333"
       x1="-53.7194"
       y1="-21.0171"
       x2="441.896"
       y2="53.5312"
       gradientUnits="userSpaceOnUse"
       gradientTransform="translate(0.07741102,0.08665374)">
      <stop
         offset="0.0852"
         stop-color="#041080"
         id="stop4" />
      <stop
         offset="1"
         stop-color="#0926C0"
         id="stop5" />
    </linearGradient>
    <linearGradient
       id="paint1_linear_13_333"
       x1="-53.7194"
       y1="-21.0171"
       x2="441.896"
       y2="53.5312"
       gradientUnits="userSpaceOnUse">
      <stop
         offset="0.0852"
         stop-color="#041080"
         id="stop6" />
      <stop
         offset="1"
         stop-color="#0926C0"
         id="stop7" />
    </linearGradient>
  </defs>
  <path
     d="m 20.077411,0.08665374 c -11.046,0 -19.99999998,8.95400016 -19.99999998,20.00000026 v 66.556 97.039006 64.777 c 0,11.046 8.95399998,20 19.99999998,20 H 394.07741 c 11.046,0 20,-8.954 20,-20 V 20.086654 c 0,-11.0460001 -8.954,-20.00000026 -20,-20.00000026 z"
     fill="url(#paint0_linear_13_333)"
     id="path2"
     style="fill:url(#paint0_linear_13_333)" />
</svg>
