<?xml version="1.0" encoding="UTF-8" standalone="no"?>
<svg
   width="442"
   height="300"
   viewBox="0 0 442 300"
   fill="none"
   version="1.1"
   id="svg7"
   sodipodi:docname="3-original.svg"
   xml:space="preserve"
   inkscape:version="1.4 (86a8ad7, 2024-10-11)"
   xmlns:inkscape="http://www.inkscape.org/namespaces/inkscape"
   xmlns:sodipodi="http://sodipodi.sourceforge.net/DTD/sodipodi-0.dtd"
   xmlns:xlink="http://www.w3.org/1999/xlink"
   xmlns="http://www.w3.org/2000/svg"
   xmlns:svg="http://www.w3.org/2000/svg"><sodipodi:namedview
     id="namedview7"
     pagecolor="#ffffff"
     bordercolor="#000000"
     borderopacity="0.25"
     inkscape:showpageshadow="2"
     inkscape:pageopacity="0.0"
     inkscape:pagecheckerboard="0"
     inkscape:deskcolor="#d1d1d1"
     inkscape:zoom="0.71349246"
     inkscape:cx="-2.1023347"
     inkscape:cy="11.91323"
     inkscape:window-width="1920"
     inkscape:window-height="1009"
     inkscape:window-x="-8"
     inkscape:window-y="-8"
     inkscape:window-maximized="1"
     inkscape:current-layer="g10" /><defs
     id="defs7"><linearGradient
       id="paint0_linear_13_333"
       x1="-53.7194"
       y1="-21.0171"
       x2="441.896"
       y2="53.5312"
       gradientUnits="userSpaceOnUse"
       gradientTransform="rotate(180,220.83333,134.51933)"><stop
         offset="0.0852"
         stop-color="#041080"
         id="stop4" /><stop
         offset="1"
         stop-color="#0926C0"
         id="stop5" /></linearGradient><linearGradient
       id="paint1_linear_13_333"
       x1="-53.7194"
       y1="-21.0171"
       x2="441.896"
       y2="53.5312"
       gradientUnits="userSpaceOnUse"
       gradientTransform="rotate(180,221.1335,135.17074)"><stop
         offset="0.0852"
         stop-color="#041080"
         id="stop6" /><stop
         offset="1"
         stop-color="#0926C0"
         id="stop7" /></linearGradient><linearGradient
       id="paint0_linear_13_335"
       x1="-53.5002"
       y1="-20.3892"
       x2="440.182"
       y2="53.5654"
       gradientUnits="userSpaceOnUse"><stop
         offset="0.0851517"
         stop-color="#041080"
         id="stop4-1" /><stop
         offset="1"
         stop-color="#0926C0"
         id="stop5-5" /></linearGradient><linearGradient
       id="paint0_linear_13_334"
       x1="-50.2463"
       y1="-23.3538"
       x2="416.335"
       y2="35.7218"
       gradientUnits="userSpaceOnUse"><stop
         offset="0.0851517"
         stop-color="#041080"
         id="stop4-6" /><stop
         offset="1"
         stop-color="#0926C0"
         id="stop5-50" /></linearGradient><linearGradient
       inkscape:collect="always"
       xlink:href="#paint0_linear_13_334"
       id="linearGradient10"
       gradientUnits="userSpaceOnUse"
       x1="-50.2463"
       y1="-23.3538"
       x2="416.335"
       y2="35.7218" /><linearGradient
       inkscape:collect="always"
       xlink:href="#paint0_linear_13_334"
       id="linearGradient11"
       gradientUnits="userSpaceOnUse"
       x1="-50.2463"
       y1="-23.3538"
       x2="416.335"
       y2="35.7218" /></defs><g
     style="fill:none"
     id="g9"
     transform="translate(1.00001,-0.62793)"><g
       style="fill:none"
       id="g10"
       transform="translate(27.943262,0.69895955)"><path
         d="m 150.208,244.803 c -1.991,-1.912 -1.948,-4.968 0.096,-6.824 l 55.234,-50.14 c 2.045,-1.857 5.317,-1.81 7.308,0.102 l 54.081,51.942 c 1.991,1.913 1.948,4.968 -0.096,6.824 l -55.234,50.141 c -2.045,1.856 -5.317,1.81 -7.309,-0.103 z"
         fill="url(#paint1_linear_13_334)"
         id="path4"
         style="fill:url(#linearGradient11)" /><path
         d="M 20,0 C 8.95431,0 0,8.95429 0,20 v 64.9821 l 28.0166,46.0129 c 1.4361,2.359 1.4361,6.183 0,8.542 L 0,185.55 v 62.822 c 0,11.046 8.95431,20 20,20 h 373 c 11.046,0 20,-8.954 20,-20 V 20 C 413,8.9543 404.046,0 393,0 Z"
         fill="#969af7"
         id="path1"
         style="fill:none" /><path
         d="M 20,0 C 8.95431,0 0,8.95429 0,20 v 64.9821 l 28.0166,46.0129 c 1.4361,2.359 1.4361,6.183 0,8.542 L 0,185.55 v 62.822 c 0,11.046 8.95431,20 20,20 h 373 c 11.046,0 20,-8.954 20,-20 V 20 C 413,8.9543 404.046,0 393,0 Z"
         fill="url(#paint0_linear_13_334)"
         id="path2"
         style="fill:url(#linearGradient10)" /></g></g></svg>
