<?xml version="1.0" encoding="UTF-8" standalone="no"?>
<svg
   width="442"
   height="270"
   viewBox="0 0 442 270"
   fill="none"
   version="1.1"
   id="svg7"
   sodipodi:docname="4.svg"
   xml:space="preserve"
   inkscape:version="1.4 (86a8ad7, 2024-10-11)"
   xmlns:inkscape="http://www.inkscape.org/namespaces/inkscape"
   xmlns:sodipodi="http://sodipodi.sourceforge.net/DTD/sodipodi-0.dtd"
   xmlns:xlink="http://www.w3.org/1999/xlink"
   xmlns="http://www.w3.org/2000/svg"
   xmlns:svg="http://www.w3.org/2000/svg"><sodipodi:namedview
     id="namedview7"
     pagecolor="#ffffff"
     bordercolor="#000000"
     borderopacity="0.25"
     inkscape:showpageshadow="2"
     inkscape:pageopacity="0.0"
     inkscape:pagecheckerboard="0"
     inkscape:deskcolor="#d1d1d1"
     inkscape:zoom="1.4269849"
     inkscape:cx="292.57492"
     inkscape:cy="98.459344"
     inkscape:window-width="1920"
     inkscape:window-height="1009"
     inkscape:window-x="-8"
     inkscape:window-y="-8"
     inkscape:window-maximized="1"
     inkscape:current-layer="g9" /><defs
     id="defs7"><linearGradient
       id="paint0_linear_13_333"
       x1="-53.7194"
       y1="-21.0171"
       x2="441.896"
       y2="53.5312"
       gradientUnits="userSpaceOnUse"
       gradientTransform="rotate(180,220.83333,134.51933)"><stop
         offset="0.0852"
         stop-color="#041080"
         id="stop4" /><stop
         offset="1"
         stop-color="#0926C0"
         id="stop5" /></linearGradient><linearGradient
       id="paint1_linear_13_333"
       x1="-53.7194"
       y1="-21.0171"
       x2="441.896"
       y2="53.5312"
       gradientUnits="userSpaceOnUse"
       gradientTransform="rotate(180,221.1335,135.17074)"><stop
         offset="0.0852"
         stop-color="#041080"
         id="stop6" /><stop
         offset="1"
         stop-color="#0926C0"
         id="stop7" /></linearGradient><linearGradient
       id="paint0_linear_13_335"
       x1="-53.5002"
       y1="-20.3892"
       x2="440.182"
       y2="53.5654"
       gradientUnits="userSpaceOnUse"><stop
         offset="0.0851517"
         stop-color="#041080"
         id="stop4-1" /><stop
         offset="1"
         stop-color="#0926C0"
         id="stop5-5" /></linearGradient><linearGradient
       inkscape:collect="always"
       xlink:href="#paint0_linear_13_335"
       id="linearGradient9"
       gradientUnits="userSpaceOnUse"
       x1="-53.500198"
       y1="-20.3892"
       x2="440.18201"
       y2="53.565399" /><linearGradient
       inkscape:collect="always"
       xlink:href="#paint0_linear_13_335"
       id="linearGradient10"
       gradientUnits="userSpaceOnUse"
       x1="-53.500198"
       y1="-20.3892"
       x2="440.18201"
       y2="53.565399"
       gradientTransform="translate(1.25459,1)" /></defs><g
     style="fill:none"
     id="g9"
     transform="translate(1.00001,-0.62793)"><path
       d="m 44.6281,66.556 c 1.5381,-2.2934 4.032,-2.2934 5.5702,0 l 43.4744,64.818 c 1.5382,2.294 1.5382,6.012 0,8.305 l -43.4744,64.819 c -1.5382,2.293 -4.0321,2.293 -5.5703,0 L 1.15363,139.679 c -1.538175,-2.293 -1.538173,-6.011 0,-8.305 z"
       fill="#969af7"
       id="path3" /><path
       d="m 44.6281,66.556 c 1.5381,-2.2934 4.032,-2.2934 5.5702,0 l 43.4744,64.818 c 1.5382,2.294 1.5382,6.012 0,8.305 l -43.4744,64.819 c -1.5382,2.293 -4.0321,2.293 -5.5703,0 L 1.15363,139.679 c -1.538175,-2.293 -1.538173,-6.011 0,-8.305 z"
       fill="url(#paint1_linear_13_335)"
       id="path4-7"
       style="fill:url(#linearGradient9)"
       sodipodi:nodetypes="ccccccccc" /><path
       d="M 210.58859,1.62793 H 47.99999 c -11.0457,0 -20,8.95429 -20,19.99997 V 250 c 0,11.046 8.9543,20 20,20 h 372.9996 c 11.046,0 20,-8.954 20,-20 V 21.6279 c 0,-11.04567 -8.954,-19.99997 -20,-19.99997 h -158.284 l -21.061,20.78087 c -1.965,1.9396 -5.237,2.03 -7.306,0.2021 z"
       fill="url(#paint0_linear_13_335)"
       id="path2-1"
       style="fill:url(#linearGradient10)"
       sodipodi:nodetypes="csssssssscccc" /></g></svg>
