<?xml version="1.0" encoding="UTF-8" standalone="no"?>
<svg
   width="442"
   height="269"
   viewBox="0 0 442 269"
   fill="none"
   version="1.1"
   id="svg7"
   sodipodi:docname="5-modified.svg"
   inkscape:version="1.4 (86a8ad7, 2024-10-11)"
   xml:space="preserve"
   xmlns:inkscape="http://www.inkscape.org/namespaces/inkscape"
   xmlns:sodipodi="http://sodipodi.sourceforge.net/DTD/sodipodi-0.dtd"
   xmlns:xlink="http://www.w3.org/1999/xlink"
   xmlns="http://www.w3.org/2000/svg"
   xmlns:svg="http://www.w3.org/2000/svg"><sodipodi:namedview
     id="namedview7"
     pagecolor="#ffffff"
     bordercolor="#000000"
     borderopacity="0.25"
     inkscape:showpageshadow="2"
     inkscape:pageopacity="0.0"
     inkscape:pagecheckerboard="0"
     inkscape:deskcolor="#d1d1d1"
     inkscape:zoom="1.0606602"
     inkscape:cx="254.55843"
     inkscape:cy="68.353654"
     inkscape:window-width="1920"
     inkscape:window-height="1009"
     inkscape:window-x="-8"
     inkscape:window-y="-8"
     inkscape:window-maximized="1"
     inkscape:current-layer="svg7" /><defs
     id="defs7"><inkscape:path-effect
       effect="powerclip"
       message=""
       id="path-effect3"
       is_visible="true"
       lpeversion="1"
       inverse="true"
       flatten="false"
       hide_clip="false" /><linearGradient
       id="paint0_linear_13_333"
       x1="-53.7194"
       y1="-21.0171"
       x2="441.896"
       y2="53.5312"
       gradientUnits="userSpaceOnUse"
       gradientTransform="rotate(180,207.0387,134.22933)"><stop
         offset="0.0852"
         stop-color="#041080"
         id="stop4" /><stop
         offset="1"
         stop-color="#0926C0"
         id="stop5" /></linearGradient><linearGradient
       id="paint1_linear_13_333"
       x1="-53.7194"
       y1="-21.0171"
       x2="441.896"
       y2="53.5312"
       gradientUnits="userSpaceOnUse"
       gradientTransform="matrix(0.90803171,0,0,1,71.331864,-1.7047551)"><stop
         offset="0.0852"
         stop-color="#041080"
         id="stop6" /><stop
         offset="1"
         stop-color="#0926C0"
         id="stop7" /></linearGradient><linearGradient
       id="paint0_linear_13_333-8"
       x1="-53.7194"
       y1="-21.0171"
       x2="441.896"
       y2="53.5312"
       gradientUnits="userSpaceOnUse"><stop
         offset="0.0851517"
         stop-color="#041080"
         id="stop4-7" /><stop
         offset="1"
         stop-color="#0926C0"
         id="stop5-4" /></linearGradient><clipPath
       clipPathUnits="userSpaceOnUse"
       id="clipPath3"><path
         d="m 426.68916,64.494944 c 1.39656,-2.2933 3.66119,-2.2933 5.05774,0 l 39.47578,64.818316 c 1.39655,2.294 1.39655,6.012 0,8.305 l -39.47578,64.81899 c -1.39655,2.293 -3.66118,2.293 -5.05774,0 l -39.47667,-64.819 c -1.39656,-2.293 -1.39656,-6.011 0,-8.305 z"
         fill="url(#paint1_linear_13_333)"
         id="path3"
         style="display:none;fill:url(#linearGradient3);stroke-width:0.952907" /><path
         id="lpe_path-effect3"
         style="fill:url(#linearGradient3);stroke-width:0.952907"
         class="powerclip"
         d="M -4.922593,-4.913343 H 419.07741 V 273.45866 H -4.922593 Z M 426.68916,64.494944 387.21249,129.31325 c -1.39656,2.294 -1.39656,6.012 0,8.305 l 39.47667,64.819 c 1.39656,2.293 3.66119,2.293 5.05774,0 l 39.47578,-64.81899 c 1.39655,-2.293 1.39655,-6.011 0,-8.305 L 431.7469,64.494944 c -1.39655,-2.2933 -3.66118,-2.2933 -5.05774,0 z" /></clipPath><linearGradient
       inkscape:collect="always"
       xlink:href="#paint1_linear_13_333"
       id="linearGradient3"
       gradientUnits="userSpaceOnUse"
       gradientTransform="matrix(0.90803171,0,0,1,71.331864,-1.7047551)"
       x1="-53.7194"
       y1="-21.0171"
       x2="441.896"
       y2="53.5312" /></defs><path
     d="m 394.07741,268.45866 c 11.046,0 20,-8.954 20,-20 v -66.556 -97.039 -64.777003 c 0,-11.046 -8.954,-20 -20,-20 H 20.077407 c -11.046,0 -20,8.954 -20,20 V 248.45866 c 0,11.046 8.954,20 20,20 z"
     fill="url(#paint0_linear_13_333)"
     id="path2"
     style="fill:url(#paint0_linear_13_333)"
     clip-path="url(#clipPath3)"
     inkscape:path-effect="#path-effect3"
     inkscape:original-d="m 394.07741,268.45866 c 11.046,0 20,-8.954 20,-20 v -66.556 -97.039 -64.777003 c 0,-11.046 -8.954,-20 -20,-20 H 20.077407 c -11.046,0 -20,8.954 -20,20 V 248.45866 c 0,11.046 8.954,20 20,20 z"
     transform="rotate(180,207.07741,134.27266)" /></svg>
