<?xml version="1.0" encoding="utf-8"?>
<svg width="442" height="269" viewBox="0 0 442 269" fill="none" xmlns="http://www.w3.org/2000/svg">
  <path d="M 47.546 0 C 36.501 0 27.546 8.954 27.546 20 L 27.546 86.555 L 54.489 130.805 C 55.925 133.163 55.925 136.987 54.489 139.346 L 27.546 183.595 L 27.546 248.372 C 27.546 259.418 36.501 268.372 47.546 268.372 L 421.546 268.372 C 432.592 268.372 441.546 259.418 441.546 248.372 L 441.546 20 C 441.546 8.954 432.592 0 421.546 0 L 47.546 0 Z" fill="url(#paint0_linear_13_333)" style="transform-box: fill-box; transform-origin: 50% 50%;" transform="matrix(-1, 0, 0, -1, -0.000027, -0.000006)"/>
  <path d="M 44.628 64.231 C 46.166 61.938 48.66 61.938 50.198 64.231 L 93.672 129.049 C 95.21 131.343 95.21 135.061 93.672 137.354 L 50.198 202.173 C 48.66 204.466 46.166 204.466 44.628 202.173 L 1.153 137.354 C -0.385 135.061 -0.385 131.343 1.153 129.049 L 44.628 64.231 Z" fill="url(#paint1_linear_13_333)" style="transform-box: fill-box; transform-origin: 50% 50%;" transform="matrix(-1, 0, 0, -1, -0.000002, -0.000012)"/>
  <defs>
    <linearGradient id="paint0_linear_13_333" x1="-53.7194" y1="-21.0171" x2="441.896" y2="53.5312" gradientUnits="userSpaceOnUse" gradientTransform="matrix(1, 0, 0, 1, 27.545717, -0.000273)">
      <stop offset="0.0852" stop-color="#041080"/>
      <stop offset="1" stop-color="#0926C0"/>
    </linearGradient>
    <linearGradient id="paint1_linear_13_333" x1="-53.7194" y1="-21.0171" x2="441.896" y2="53.5312" gradientUnits="userSpaceOnUse" gradientTransform="matrix(1, 0, 0, 1, -346.721247, -1.968274)">
      <stop offset="0.0852" stop-color="#041080"/>
      <stop offset="1" stop-color="#0926C0"/>
    </linearGradient>
  </defs>
</svg>