<?xml version="1.0" encoding="utf-8"?>
<svg width="442" height="269" viewBox="0 0 442 269" fill="none" xmlns="http://www.w3.org/2000/svg">
  <path d="M391.349 66.1997C392.887 63.9064 395.381 63.9064 396.919 66.1997L440.393 131.018C441.931 133.312 441.931 137.03 440.393 139.323L396.919 204.142C395.381 206.435 392.887 206.435 391.349 204.142L347.874 139.323C346.336 137.03 346.336 133.312 347.874 131.018L391.349 66.1997Z" fill="#969AF7"/>
  <path d="M391.349 66.1997C392.887 63.9064 395.381 63.9064 396.919 66.1997L440.393 131.018C441.931 133.312 441.931 137.03 440.393 139.323L396.919 204.142C395.381 206.435 392.887 206.435 391.349 204.142L347.874 139.323C346.336 137.03 346.336 133.312 347.874 131.018L391.349 66.1997Z" fill="url(#paint1_linear_13_333)"/>
  <defs>
    <linearGradient id="paint1_linear_13_333" x1="-53.7194" y1="-21.0171" x2="441.896" y2="53.5312" gradientUnits="userSpaceOnUse">
      <stop offset="0.0852" stop-color="#041080"/>
      <stop offset="1" stop-color="#0926C0"/>
    </linearGradient>
  </defs>
</svg>